<svg id="M_Tech_Logo-01" xmlns="http://www.w3.org/2000/svg" width="18.899" height="19.036" viewBox="0 0 18.899 19.036">
  <path id="Path_1" data-name="Path 1" d="M3.372,6.087a1.3,1.3,0,0,0-.062.679v10.8c0,1.461,0,1.461-1.44,1.461H.739c-.514-.021-.659-.164-.659-.7V.925C.08.186.2.061.944.041H3.762c.617,0,.74.083.947.679.7,1.932,1.38,3.867,2.057,5.8.885,2.489,1.811,4.958,2.592,7.468.062.185.1.371.309.452.205-.083.247-.267.309-.452,1.09-3.085,2.263-6.172,3.292-9.279.452-1.378.988-2.737,1.481-4.094A.816.816,0,0,1,15.634,0c.493.041,1.009,0,1.5,0,.205,0,.433-.041.576.226a15.069,15.069,0,0,1-.761,2.242c-1.378,3.58-2.613,7.221-3.908,10.841-.6,1.687-1.214,3.353-1.832,5.041-.205.535-.329.638-.926.638h-1.5a.787.787,0,0,1-.823-.535L7.1,16.106c-1.174-3.27-2.326-6.542-3.5-9.791C3.558,6.274,3.538,6.15,3.372,6.087Z" transform="translate(-0.08 0.005)" fill="#a61e22"/>
  <path id="Path_2" data-name="Path 2" d="M102.156,9.32a.937.937,0,0,1,.083.617v15.9c-.021.926-.1,1.009-.988,1.028-.493,0-1.009.021-1.5-.021-.493-.021-.638-.185-.638-.659V17.959a2.785,2.785,0,0,1,.205-.905c.905-2.509,1.769-5.02,2.654-7.53C102.012,9.444,102.033,9.361,102.156,9.32Z" transform="translate(-83.352 -7.836)" fill="#99999a"/>
</svg>
