<?xml version="1.0" encoding="UTF-8"?>
<svg id="Layer_1" data-name="Layer 1" xmlns="http://www.w3.org/2000/svg" viewBox="0 0 601.18 143.43">
  <defs>
    <style>
      .cls-1 {
        fill: #9b9b9b;
      }

      .cls-2 {
        fill: #a80000;
      }
    </style>
  </defs>
  <g>
    <path class="cls-2" d="M15.99,29.51c-.6,1.13-.32,2.25-.32,3.33-.02,17.5,0,35-.02,52.51q0,7.1-6.98,7.1c-1.82,0-3.65.05-5.46-.04-2.53-.14-3.19-.84-3.2-3.37C-.02,84.99.01,80.95.01,76.9V4.36C.01.79.63.12,4.22.1c4.55-.03,9.1-.02,13.66,0,3.02,0,3.55.37,4.61,3.34,3.36,9.41,6.7,18.83,10.02,28.25,4.26,12.09,8.76,24.09,12.55,36.34.26.85.5,1.77,1.46,2.19.99-.38,1.16-1.34,1.46-2.17,5.31-15.04,10.96-29.95,16.02-45.07,2.24-6.7,4.79-13.29,7.19-19.94.73-2.04,1.96-3.14,4.31-2.98,2.42.17,4.85.02,7.28.04.98,0,2.08-.23,2.78,1.15-.76,3.67-2.31,7.3-3.7,10.94-6.68,17.44-12.71,35.11-18.97,52.69-2.91,8.18-5.95,16.31-8.95,24.45-.97,2.63-1.62,3.07-4.49,3.1-2.43.03-4.86-.03-7.28.01-1.96.03-3.28-.77-3.96-2.64-1.38-3.79-2.82-7.57-4.17-11.37-5.67-15.87-11.31-31.76-16.96-47.64-.2-.44-.24-.98-1.09-1.28Z"/>
    <path class="cls-2" d="M524.72,46.25V5.28c0-4.65.5-5.14,5.25-5.16,2.12,0,4.25-.03,6.37.02,3.26.07,4.1.88,4.12,4.18.04,9.2.02,18.41.02,27.61,0,.81-.05,1.63.05,2.42.16,1.24.88,2.02,2.17,2.14.7.06,1.41.07,2.12.07,12.04,0,24.07.01,36.11,0,4.2,0,4.46-.27,4.46-4.49,0-9.1-.01-18.21.01-27.31.01-3.88.73-4.6,4.59-4.63,2.53-.02,5.06-.03,7.59.03,2.9.06,3.57.71,3.58,3.6.03,6.57.01,13.15.01,19.72v63.12c0,.91.04,1.82-.04,2.73-.14,1.73-1.04,2.9-2.85,2.94-3.44.08-6.88.02-10.32.03-1.52,0-2.17-.99-2.41-2.26-.19-.98-.15-2.01-.15-3.02-.01-10.92,0-21.85-.01-32.77-.01-3.7-.52-4.28-4.16-4.3-12.24-.04-24.48-.04-36.72-.01-3.35.01-4.03.74-4.03,4.16-.02,11.23,0,22.46-.04,33.68-.01,4.21-.38,4.54-4.49,4.56-2.63.01-5.26.03-7.89-.04-2.48-.06-3.15-.76-3.34-3.27-.06-.81-.02-1.62-.02-2.43.02-13.44.02-26.9.02-40.35Z"/>
    <path class="cls-2" d="M309.21,20.84c-.74.21-1.09.6-1.23,1.09-2.36,8.49-6.16,16.44-9.28,24.64-5.38,14.15-10.8,28.28-16.1,42.46-.92,2.46-2.32,3.56-4.96,3.41-2.62-.15-5.26,0-7.89-.04-3.91-.06-4.64-1.1-3.23-4.89,1.58-4.26,3.26-8.48,4.95-12.69,6.06-15.08,12.15-30.15,18.21-45.23,3.39-8.43,6.71-16.88,10.12-25.3,1.68-4.14,1.81-4.17,6.24-4.17,2.63,0,5.27.11,7.89-.04,2.29-.13,3.6.91,4.44,2.88,3.76,8.82,7.53,17.65,11.31,26.47,7.12,16.61,14.25,33.22,21.37,49.83,1.23,2.88,2.51,5.74,3.68,8.64,1.34,3.31.57,4.45-3.01,4.5-3.13.04-6.28-.11-9.4.04-2.37.11-3.81-.83-4.68-2.98-2.59-6.36-5.31-12.66-7.84-19.05-6.17-15.58-12.26-31.19-18.4-46.78-.42-1.1-.71-2.37-2.19-2.79Z"/>
    <path class="cls-2" d="M471.16,20.71c-1.28.64-1.43,1.81-1.82,2.83-8.12,21.32-16.24,42.64-24.36,63.97-.32.85-.73,1.67-1.07,2.51-.64,1.59-1.8,2.36-3.52,2.35-3.24-.01-6.48.08-9.71-.01-3-.08-3.77-1.23-2.64-4.1,3.76-9.59,7.59-19.15,11.43-28.71,6.99-17.43,14-34.85,21-52.28.38-.94.84-1.84,1.23-2.77q1.85-4.38,6.73-4.34c2.12,0,4.25.07,6.37-.04,2.68-.15,4.42.99,5.46,3.43,2.85,6.69,5.73,13.36,8.59,20.05,7.42,17.36,14.84,34.73,22.26,52.1,1.71,3.99,3.44,7.97,5.09,11.99,1.43,3.48.64,4.63-3.13,4.68-2.93.04-5.87-.09-8.8.07-2.52.14-4.02-.99-4.9-3.19-2.22-5.53-4.41-11.07-6.67-16.58-6.21-15.13-12.41-30.27-18.26-45.55-.47-1.22-.87-2.47-1.25-3.73-.33-1.1-.68-2.14-2.03-2.68Z"/>
    <path class="cls-2" d="M215.54,46.29c0-13.86-.03-27.72.02-41.59.01-4.05.61-4.59,4.56-4.59,19.12,0,38.25,0,57.37,0,3.86,0,4.27.5,4.32,4.44.03,2.14-.33,4.22-.55,6.33-.18,1.71-1.14,2.52-2.78,2.6-1.01.05-2.02.05-3.03.05h-39.16c-4.34,0-4.9.55-4.9,4.85v15.18c0,4.55.32,4.89,4.77,4.9,11.13.01,22.26,0,33.39,0,.81,0,1.63-.06,2.43.04,1.7.22,2.86,1.18,2.94,2.94.11,2.52.11,5.06.01,7.58-.06,1.56-.84,2.57-2.56,2.88-1.11.19-2.2.26-3.31.26-11.13.02-22.26.03-33.39.06-3.91.01-4.28.39-4.28,4.4-.01,10.42.01,20.84-.01,31.27-.01,4.1-.43,4.49-4.56,4.53-2.53.02-5.06.04-7.59-.02-2.87-.07-3.61-.73-3.65-3.61-.09-6.98-.07-13.96-.07-20.94-.01-7.18,0-14.37,0-21.55-.01-.01,0-.01.03-.01Z"/>
    <path class="cls-1" d="M180.93,50.7c.06.21.05.47.18.58,7.31,6.02,12.18,13.98,17.25,21.77,3.2,4.91,6.47,9.78,9.6,14.74,2.09,3.31,1.36,4.55-2.51,4.62-3.44.06-6.88-.02-10.31.1-2.6.09-4.3-.98-5.73-3.17-6.37-9.72-12.76-19.44-19.68-28.78-4.05-5.46-9.43-7.97-16.21-7.86-5.69.1-5.69-.01-5.69-5.66,0-1.72.03-3.44-.01-5.16-.04-1.79.85-2.57,2.59-2.58,3.44-.02,6.88-.28,10.31-.09,4.69.26,9.31-.2,13.87-1,4.28-.74,7.98-2.66,10.06-6.94,2.47-5.09,1.43-10.24-3.02-13.85-3.77-3.06-8.27-3.65-12.84-3.76-5.56-.14-11.12,0-16.69-.04-3.95-.03-4.29-.41-4.29-4.37,0-2.12.01-4.25,0-6.37-.01-1.68.66-2.77,2.47-2.74,9.9.18,19.83-.74,29.69.61,7.4,1.01,13.9,3.92,17.9,10.61,6.68,11.17,5.55,23.83-3.85,32.66-2.96,2.78-6.78,3.92-10.41,5.44-.91.39-2.05.27-2.68,1.24Z"/>
    <path class="cls-2" d="M377.12,39.52c0,11.63-.01,23.27.01,34.9.01,3.95.64,4.56,4.58,4.57,12.14.01,24.28,0,36.42.01,4.19.01,4.53.35,4.55,4.46.01,2.02-.01,4.05,0,6.07,0,1.87-.99,2.78-2.8,2.85-.91.04-1.82.04-2.73.04-16.49,0-32.98.01-49.47,0-6.23,0-6.52-.13-6.25-6.55,1-23.76.13-47.52.48-71.28.05-3.65-.73-7.23-.54-10.88.15-2.88.71-3.55,3.6-3.59,2.63-.04,5.26-.02,7.89,0,3.69.02,4.24.53,4.25,4.19,0,11.74,0,23.48,0,35.22h0Z"/>
    <path class="cls-1" d="M100.44,45.92V5.56c0-.81,0-1.62.04-2.43.12-1.88.94-3.01,3.03-2.97,3.34.06,6.67.04,10.01.02,1.75,0,2.6.92,2.72,2.58.09,1.21.13,2.42.13,3.64,0,26.6,0,53.21,0,79.81,0,6.13-.08,6.21-6.29,6.21-2.32,0-4.65-.09-6.97-.12-1.59-.02-2.43-.84-2.55-2.4-.08-1.01-.12-2.02-.12-3.03v-40.95Z"/>
    <path class="cls-1" d="M140.11,46.12v40.38c0,.91.03,1.82-.05,2.73-.2,2.4-.77,3.08-3.17,3.16-3.23.11-6.47.05-9.71-.01-1.65-.03-2.62-.96-2.8-2.62-.11-1-.17-2.02-.17-3.03,0-26.92,0-53.83,0-80.75,0-.51,0-1.01.02-1.52.16-3.59.81-4.28,4.32-4.33,2.83-.05,5.67.05,8.5,0,2.05-.05,2.99.91,3.02,2.9.01.91.05,1.82.05,2.73v40.37Z"/>
    <path class="cls-1" d="M91.44,7.14c.72.98.43,2.02.43,3,0,25.47,0,50.95,0,76.42,0,.3,0,.61,0,.91-.08,4.47-.46,4.9-4.82,4.98-2.42.05-4.86.07-7.27-.08-2.37-.14-3.08-.86-3.09-3.22-.04-13.34-.03-26.69,0-40.03,0-1.52.46-2.99.96-4.42,4.29-12.19,8.58-24.39,12.87-36.58.14-.39.23-.78.91-.98Z"/>
  </g>
  <g>
    <path d="M11.19,143.41h-5.51v-24.88H-.02v-4.86h16.91v4.86h-5.7v24.88Z"/>
    <path d="M66.34,143.41h-13.41v-29.75h13.41v4.78h-7.87v7.08h7.3v4.8h-7.3v8.24h7.87v4.84Z"/>
    <path d="M113.42,118.08c-1.59,0-2.84.93-3.75,2.79s-1.37,4.44-1.37,7.75c0,6.89,1.8,10.34,5.39,10.34,1.57,0,3.22-.5,4.94-1.51v4.92c-1.45.96-3.31,1.45-5.58,1.45-3.35,0-5.92-1.33-7.72-4-1.8-2.67-2.7-6.41-2.7-11.24s.93-8.59,2.78-11.29,4.43-4.05,7.72-4.05c1.08,0,2.13.15,3.12.45,1,.3,2.07.82,3.2,1.57l-1.83,4.5c-.61-.42-1.26-.8-1.95-1.15-.69-.35-1.44-.52-2.26-.52Z"/>
    <path d="M174.09,143.41h-5.53v-13.04h-7.3v13.04h-5.53v-29.75h5.53v11.82h7.3v-11.82h5.53v29.75Z"/>
    <path d="M233.06,143.41h-6.75l-9.2-21.55h-.26c.34,1.64.51,3.4.51,5.29v16.26h-5.13v-29.75h6.8l9.12,21.32h.22c-.26-1.42-.39-3.12-.39-5.09v-16.24h5.09v29.75Z"/>
    <path d="M291.65,128.49c0,4.92-.92,8.71-2.77,11.35-1.84,2.64-4.48,3.97-7.91,3.97s-6.09-1.32-7.94-3.96c-1.84-2.64-2.77-6.44-2.77-11.4s.92-8.7,2.77-11.32c1.84-2.62,4.5-3.94,7.98-3.94s6.06,1.32,7.89,3.96c1.83,2.64,2.75,6.42,2.75,11.34ZM275.92,128.49c0,3.39.43,5.98,1.28,7.75.85,1.78,2.11,2.67,3.76,2.67,3.34,0,5-3.47,5-10.42s-1.65-10.42-4.96-10.42c-1.68,0-2.95.88-3.8,2.66-.85,1.77-1.28,4.36-1.28,7.76Z"/>
    <path d="M328.86,143.41v-29.75h5.53v24.9h7.67v4.84h-13.21Z"/>
    <path d="M398.95,128.49c0,4.92-.92,8.71-2.77,11.35-1.84,2.64-4.48,3.97-7.92,3.97s-6.09-1.32-7.93-3.96c-1.84-2.64-2.77-6.44-2.77-11.4s.92-8.7,2.77-11.32c1.84-2.62,4.5-3.94,7.98-3.94s6.06,1.32,7.89,3.96c1.83,2.64,2.75,6.42,2.75,11.34ZM383.23,128.49c0,3.39.43,5.98,1.28,7.75.85,1.78,2.11,2.67,3.76,2.67,3.34,0,5.01-3.47,5.01-10.42s-1.66-10.42-4.96-10.42c-1.68,0-2.95.88-3.8,2.66-.85,1.77-1.28,4.36-1.28,7.76Z"/>
    <path d="M445.16,126.91h9.09v15.26c-2.58,1.1-5.32,1.65-8.22,1.65-3.46,0-6.12-1.32-7.99-3.95s-2.8-6.42-2.8-11.37,1.07-8.51,3.21-11.21c2.14-2.7,5.12-4.05,8.96-4.05,2.37,0,4.64.61,6.8,1.83l-1.75,4.52c-1.68-.98-3.25-1.46-4.72-1.46-2.1,0-3.77.94-5,2.82s-1.84,4.44-1.84,7.68.44,5.89,1.33,7.67c.89,1.78,2.18,2.67,3.88,2.67.9,0,1.8-.12,2.73-.35v-6.82h-3.68v-4.88Z"/>
    <path d="M492.66,143.41v-29.75h5.21v29.75h-5.21Z"/>
    <path d="M550.45,143.41h-13.41v-29.75h13.41v4.78h-7.87v7.08h7.3v4.8h-7.3v8.24h7.87v4.84Z"/>
    <path d="M601.21,135.21c0,2.78-.7,4.91-2.11,6.39-1.4,1.48-3.43,2.22-6.07,2.22s-4.79-.51-6.61-1.53v-5.47c2.22,1.45,4.27,2.18,6.12,2.18,1.06,0,1.85-.29,2.39-.88s.8-1.38.8-2.38-.32-1.9-.96-2.72-1.69-1.73-3.15-2.74c-1.27-.88-2.24-1.73-2.9-2.53-.66-.81-1.17-1.71-1.53-2.72s-.54-2.17-.54-3.5c0-2.55.71-4.57,2.13-6.06,1.42-1.49,3.32-2.24,5.71-2.24s4.47.64,6.57,1.91l-1.83,4.44c-.65-.38-1.33-.72-2.04-1.02-.71-.3-1.48-.45-2.29-.45-.9,0-1.58.29-2.07.89-.48.59-.72,1.39-.72,2.41s.29,1.88.86,2.62c.58.75,1.58,1.59,3.02,2.54,1.94,1.3,3.29,2.63,4.06,3.99.77,1.36,1.15,2.9,1.15,4.64Z"/>
  </g>
</svg>