<svg xmlns="http://www.w3.org/2000/svg" width="52" height="52" viewBox="0 0 52 52">
  <g id="HARO_Logo" data-name="HARO Logo" transform="translate(-0.21 -0.21)">
    <circle id="Ellipse_2" data-name="Ellipse 2" cx="26" cy="26" r="26" transform="translate(0.21 0.21)" fill="#0a0a0a"/>
    <g id="Group_10" data-name="Group 10" transform="translate(16.849 6.857)">
      <path id="Path_28" data-name="Path 28" d="M490.977,343.538a1.8,1.8,0,0,1,1.63-1.427c1.794-.145,5.275.665,8.331,7.82,4.349,10.173-2.912,18.485-10.438,21.059,0,0,9.517-3.751,8.712-10.525a15.114,15.114,0,0,0-4.735-9.546s-4.272-3.722-3.5-7.386Z" transform="translate(-483.526 -332.285)" fill="#d2b278"/>
      <path id="Path_29" data-name="Path 29" d="M357.121,166.052a1.8,1.8,0,0,1-1.63,1.427c-1.794.145-5.274-.665-8.331-7.82-4.349-10.173,2.912-18.485,10.438-21.059,0,0-9.517,3.751-8.712,10.525a15.114,15.114,0,0,0,4.734,9.546s4.272,3.722,3.5,7.386Z" transform="translate(-345.852 -138.6)" fill="#d2b278"/>
    </g>
    <path id="Path_30" data-name="Path 30" d="M60.68,84.96a24.223,24.223,0,1,1,9.45-1.909A24.089,24.089,0,0,1,60.68,84.96Zm0-48.367a24.016,24.016,0,1,0,9.377,1.895A23.913,23.913,0,0,0,60.68,36.593Z" transform="translate(-34.47 -34.47)" fill="#d2b278"/>
  </g>
</svg>
