<?xml version="1.0" encoding="UTF-8"?> <svg xmlns="http://www.w3.org/2000/svg" xmlns:xlink="http://www.w3.org/1999/xlink" id="Layer_1" data-name="Layer 1" viewBox="0 0 444 106"><defs><style>.cls-1{fill:none;}.cls-2{fill:#f3e906;}.cls-3,.cls-4{fill:#016938;}.cls-3{fill-rule:evenodd;}.cls-5{fill:#f5ea19;}.cls-6{fill:url(#Unnamed_Pattern_197);}.cls-7{fill:url(#Unnamed_Pattern_197-3);}.cls-8{fill:url(#Unnamed_Pattern_197-7);}.cls-9{fill:url(#Unnamed_Pattern_197-9);}</style><pattern id="Unnamed_Pattern_197" data-name="Unnamed Pattern 197" width="23.98" height="23.5" patternTransform="matrix(1, 0, 0, -1, 21.11, 17191.78)" patternUnits="userSpaceOnUse" viewBox="0 0 23.98 23.5"><rect class="cls-1" width="23.98" height="23.5"></rect><rect class="cls-2" width="23.98" height="23.5"></rect></pattern><pattern id="Unnamed_Pattern_197-3" data-name="Unnamed Pattern 197" width="23.98" height="23.5" patternTransform="matrix(1, 0, 0, -1, -3.49, 17211.78)" patternUnits="userSpaceOnUse" viewBox="0 0 23.98 23.5"><rect class="cls-1" width="23.98" height="23.5"></rect><rect class="cls-2" width="23.98" height="23.5"></rect></pattern><pattern id="Unnamed_Pattern_197-7" data-name="Unnamed Pattern 197" width="23.98" height="23.5" patternTransform="matrix(1, 0, 0, -1, -2.49, 17198.78)" patternUnits="userSpaceOnUse" viewBox="0 0 23.98 23.5"><rect class="cls-1" width="23.98" height="23.5"></rect><rect class="cls-2" width="23.98" height="23.5"></rect></pattern><pattern id="Unnamed_Pattern_197-9" data-name="Unnamed Pattern 197" width="23.98" height="23.5" patternTransform="matrix(1, 0, 0, -1, 9.06, 17191.78)" patternUnits="userSpaceOnUse" viewBox="0 0 23.98 23.5"><rect class="cls-1" width="23.98" height="23.5"></rect><rect class="cls-2" width="23.98" height="23.5"></rect></pattern></defs><path class="cls-3" d="M421.31,57.64c-1,0-2,0-3-.06-1.82-.14-3.64-.35-5.46-.49-1.38-.11-1.75-.63-.91-1.71a16,16,0,0,1,3.14-3.07,25.91,25.91,0,0,1,4-2.15c.51-.24.57-.44.31-.92a4,4,0,0,1,.49-5.06,2.28,2.28,0,0,1,2.33-.72,9.61,9.61,0,0,1,5.54,3.7,2.38,2.38,0,0,1-.52,2.87,7.72,7.72,0,0,1-2.33,1.3c-.9.36-1.93.4-2.51,1.35-.08.13-.45.25-.54.18-.71-.58-1.39-.18-2.05,0A14.9,14.9,0,0,0,417.3,54c5.2,1.31,10.47,1.29,16,1.23-.69,1.24-1.22,2.26-1.83,3.24a1.2,1.2,0,0,1-.83.31,9.36,9.36,0,0,1-2,0,8.64,8.64,0,0,0-5.49,1.37c-1.93,1.06-3.89,2.08-5.86,3.07a10.91,10.91,0,0,1-1.87.66c-3.11.92-5.33-1-6.17-3.76-.28-.91-.39-1.88-.61-3-.63.65-1.12,1.21-1.67,1.7a5.77,5.77,0,0,1-1.38,1,1.37,1.37,0,0,1-1.94-.59c-.43-.68-1-1.29-1.55-2.06a4,4,0,0,0-.28.7,2.73,2.73,0,0,1-2.35,2.63,4.69,4.69,0,0,1-2.24-.06c-.56-.2-.94-.9-1.45-1.44-.29.92-.7,2.14-2.11,2.07-1.07,0-2.37.25-2.87-1.12-1.19.77-2.32,1.44-3.38,2.21a1.42,1.42,0,0,0-.44,1.08c0,2.24-1.35,3.55-3.06,4.65a29.88,29.88,0,0,1-9,4.29c-2.58.63-5.15.72-7.1-1.61a3.16,3.16,0,0,1-.78-1.27c-.54-3-.5-6,1.38-8.6.19-.26.73-.28,1.11-.41a3.33,3.33,0,0,1,0,1.14,18,18,0,0,0-.9,1.74c-.83,3.41,2,6.18,5.79,5.72a12.35,12.35,0,0,0,2.37-.62A36.54,36.54,0,0,0,381,66.7a45.47,45.47,0,0,0,4.48-2.61,1.3,1.3,0,0,0,.4-1,5.09,5.09,0,0,0-1.42-3.31,1.83,1.83,0,0,1-.35-1.93c.15-.44.16-.93.33-1.36a1.1,1.1,0,0,1,.58-.66,1,1,0,0,1,.79.32,9.27,9.27,0,0,1,1.28,1.64,1.12,1.12,0,0,0,1.59.53,6.3,6.3,0,0,0,1.6-1c.52-.45.9-1.06,1.41-1.52a3,3,0,0,1,.94-.4,2.64,2.64,0,0,1,0,1c-.28.73.1,1.07.69,1.14a2,2,0,0,0,2-.73c.34-.46.64-1,1-1.38s.95-.43,1.2.23c0,.09.05.19.08.28.22.66.09,1.59,1.31,1.4,1.4-.21,2.34-.83,2.28-1.93-.1-1.72-.49-3.42-.59-5.14a12.11,12.11,0,0,1,.31-3.05c.09-.51,1-.44,1.38.11a6.7,6.7,0,0,1,1.1,3.57,25.23,25.23,0,0,0,.53,3.45c.39,1.64,1.59,2.14,3.09,1.38.62-.31.71-.85.78-1.49.5-4.14-.47-8.16-1-12.21a55.82,55.82,0,0,1-.65-5.73,10.38,10.38,0,0,1,.9-3.21c0-.12.36-.27.44-.22a1.07,1.07,0,0,1,.44.55,37.49,37.49,0,0,1,1,4.42c.54,4.92,1,9.85,1.47,14.77.14,1.48.29,3,.5,4.42a4,4,0,0,0,5.44,3.27c1.44-.55,2.84-1.19,4.26-1.81a6,6,0,0,0,.76-.47Zm1.21-11.3c-.45.29-1.16.52-1.24.88a1.39,1.39,0,0,0,1.89,1.46c.35-.12.74-.15,1.08-.28s.6-.26.62-.43a1,1,0,0,0-.3-.79A17.89,17.89,0,0,0,422.52,46.34Z"></path><path class="cls-3" d="M110.87,55a1.72,1.72,0,0,0,.68.09c2.69-.77,5.39-1.53,8.07-2.37a21.39,21.39,0,0,0,3.11-1.36c.34-.17.56-.58.84-.89a3.94,3.94,0,0,0-1.15-.4c-.78,0-1.56.13-2.35.2a9.65,9.65,0,0,1-1.32.08c-2.25-.1-3.12-1.49-2.3-3.62a10.54,10.54,0,0,0,.45-1.34c.54-2.27,3.67-4,5.75-1.6a2.65,2.65,0,0,0,.33.34,6.12,6.12,0,0,1,2.24,5.41,6.17,6.17,0,0,1-3,5.43,12.83,12.83,0,0,1-2.72,1.3c-1.84.66-3.7,1.22-5.74,1.88,1.67,1.3,1.35,2.86.86,4.45-.85,2.75-3.14,2.88-5.11,1.61a5.38,5.38,0,0,1-2.42-4.29c0-.09-.07-.17-.1-.25-1.67.11-1.67.11-1.16-1.43a8.09,8.09,0,0,0-1,0,5.64,5.64,0,0,1-6.15-2.73,3.62,3.62,0,0,1-.43-1.84,8.32,8.32,0,0,1,.42-1.89c-.11,0-.18-.1-.21-.08a12.33,12.33,0,0,0-5.37,6.73c-.73,2.24.34,7,3.27,8.3a35.68,35.68,0,0,0,5,1.86,10.94,10.94,0,0,0,2.91,0c2.59,0,5.17-.06,7.76-.14a14.53,14.53,0,0,0,1.83-.3,5.48,5.48,0,0,1,1.21-.09.59.59,0,0,1,.42.39c0,.14-.19.37-.36.45-2,1-3.92,1.86-5.87,2.81a6.89,6.89,0,0,1-4.35.85,35.27,35.27,0,0,0-4.25-.26A11.41,11.41,0,0,1,94,69.34a8.79,8.79,0,0,1-2.89-6.17c-.42-4,1.05-7.48,3.2-10.73.1-.16.22-.31.32-.47a2.13,2.13,0,0,0,0-.31,9.44,9.44,0,0,0-1.05-.14,5.65,5.65,0,0,1-5-4.32C88,44.41,90,41,93,39.71a5,5,0,0,1,5.32.56,16.75,16.75,0,0,1,1.49,1.14c.16.15.09.55.13.83a7.49,7.49,0,0,1-.79-.18,6,6,0,0,0-1.55-.56,8.47,8.47,0,0,0-6.06,2,1.66,1.66,0,0,0-.36,2.48c1.19,1.12,2.28,2.5,4.16,2.56a10,10,0,0,0,6.94-2.2,18.57,18.57,0,0,1,2.33-1.61.94.94,0,0,1,.9.12,1,1,0,0,1,0,1c-1,1.16-2.06,2.28-3.15,3.36a9.74,9.74,0,0,1-1.49,1,1.71,1.71,0,0,0-.44,2.83,3.88,3.88,0,0,0,3.34,1.65c1-.08,2,0,2.91-.2.36-.07.67-.55,1-.89a1.15,1.15,0,0,0,.21-.62c.22-2,1.67-3.33,2.47-5a.82.82,0,0,1,.74-.33,1.25,1.25,0,0,1,.65.78A14.16,14.16,0,0,1,110.87,55Zm9.06-8.08a7.46,7.46,0,0,0,1,0c.2,0,.52-.15.54-.26a.92.92,0,0,0-.21-.66,1.57,1.57,0,0,0-2.2-.25,3.85,3.85,0,0,0-.66.94l1,.24A3.88,3.88,0,0,0,119.93,46.88Zm-10.31,4.28c-.43.8-.83,1.41-1.11,2.08-.16.39,0,.8.57.65A1.74,1.74,0,0,0,109.62,51.16Zm-.21,8.66c.34,1.39,1.86,2.09,2.75,1.3A3.9,3.9,0,0,0,109.41,59.82Z"></path><path class="cls-3" d="M151.92,56.18a3.63,3.63,0,0,0-.29.79,7.7,7.7,0,0,1-5.55,6.91c-1.07.27-2.1.68-3.16,1-.2,0-.45-.08-.67-.12.12-.19.2-.44.37-.56,1.65-1.21,3.44-2.26,5-3.6a9.48,9.48,0,0,0,3.19-7.33,55.21,55.21,0,0,0-.49-7.82,59.63,59.63,0,0,0-1.73-8,6.76,6.76,0,0,1-.28-3.38,4.91,4.91,0,0,1,.77-1.26c.32.31.77.55.94.92a29.51,29.51,0,0,1,2.1,8.89c.38,3.44.84,6.88,1.29,10.32a7.66,7.66,0,0,0,1.86,4,2,2,0,0,0,1.2.55c2.1.29,3.48-.84,4.48-2.5s2.89-2.79,4.49-4a1.49,1.49,0,0,1,1.41.21,4.88,4.88,0,0,1,1.67,3.95,6.42,6.42,0,0,1-.76,3.54c-.35.53-.72.87-1.39.68a2.45,2.45,0,0,0-2.94,1.27,19.63,19.63,0,0,0-1.1,1.88A1.73,1.73,0,0,0,163.74,65a5.2,5.2,0,0,0,3.79-.79c1.09-.8,2.18-1.62,3.34-2.31,1.83-1.1,3.69-2.14,5.58-3.14.54-.29.88-.47.47-1.1a1.13,1.13,0,0,1-.21-.62c.16-2.11.23-4.26,1.75-5.95a4.69,4.69,0,0,1,1.45-1c.88-.42,1.39-.19,1.89.63a5.11,5.11,0,0,0,.94,1.28c2.09,1.72,3.87.45,4.65-1.62.07-.21,0-.48.14-.64a5.38,5.38,0,0,1,.75-.76,3.21,3.21,0,0,1,.56.74c.38,1,1.24,1.42,2.9,1.13,0-.2-.1-.39-.12-.59a9.2,9.2,0,0,1-.11-2,4.56,4.56,0,0,1,.74-1.31,9.61,9.61,0,0,1,1.15,1.15,1.42,1.42,0,0,1,.2,1c-.26,1.39-.54,2.78-.9,4.14a1.36,1.36,0,0,1-1.47,1c-1.18,0-2.42.21-3.36-.91-.15.17-.3.27-.34.39a3.23,3.23,0,0,1-3.06,2.42,3.51,3.51,0,0,1-3.21-1.85c-.77-1.11-1.17-1.24-2-.57s-1.15,1.61-.2,2.46a20.3,20.3,0,0,0,2.92,2c.45.28,1,.37,1.45.66.63.43,1.28.9.68,1.85-.17.25-.06.67-.1,1-.1,1-.83,1.46-1.59.94-2.4-1.66-4.93-1.13-7.26-.13-1.88.8-3.47,2.26-5.23,3.37-1.38.86-2.82,1.64-4.24,2.44a2.59,2.59,0,0,1-.9.26c-2.2.32-2.78,0-3.6-2.1a5.84,5.84,0,0,1,1.4-6.76c.86-.88.87-.87,0-1.7-.14-.13-.28-.25-.41-.39-.49-.54-.81-.45-1.24.15a26.58,26.58,0,0,1-2.42,3,2.32,2.32,0,0,1-2.73.42c-1.9-.78-3.27-2-3.5-4.19A3.79,3.79,0,0,0,151.92,56.18Zm14.07-1a12.46,12.46,0,0,0-1.49-.86c-.11,0-.36.22-.54.35.43.3.84.63,1.29.89C165.33,55.62,165.55,55.42,166,55.19Z"></path><path class="cls-3" d="M325.36,54.19A14.43,14.43,0,0,0,327,56.76c.28.29,1.12.07,1.95.08-1.08-1.62-.83-3,.3-4.56a4.12,4.12,0,0,1,.64,1.22c.15,1.22.18,2.45.25,3.68.11,1.9-1.16,2.79-2.79,3.3a1.81,1.81,0,0,0-1.42,1.29,10,10,0,0,1-.51,1.42,2.34,2.34,0,0,0,.72,2.73,1.78,1.78,0,0,0,2.42.23,35.24,35.24,0,0,0,3.66-2.78c1.41-1.21,2.74-2.52,4.1-3.78A11.36,11.36,0,0,1,341,56.9c.68-.19,1-.42.61-1.26a4.48,4.48,0,0,1,1.05-4.32A3.41,3.41,0,0,1,347,51a22,22,0,0,1,2.76,2.54.56.56,0,0,1,.14.25,4.36,4.36,0,0,1-1.46,3.62,6.46,6.46,0,0,1-1.3.56c-1,.24-1.52.76-1.29,1.86,0,.19-.17.42-.26.63-.23-.13-.62-.23-.67-.41-.34-1.39-1.16-1-2.1-.72a18.44,18.44,0,0,0-7.74,4.74c-1.57,1.6-3.23,3.11-4.89,4.61-1.82,1.66-4,1.4-5.26-.7a7.21,7.21,0,0,1,0-7.38,1.08,1.08,0,0,0-.32-1.59c-.65,1.37-1.41,2.65-3,2.88a2.64,2.64,0,0,1-3.25-2.2c-1.47,2-2.8,4-5.34,3.45-2.35-.46-3.56-2.14-3.49-4.69l-.28.07c-.15.29-.3.58-.46.87-.72,1.32-1.4,2.68-2.17,4-.93,1.54-2.62,2-4.11,2.73a15.72,15.72,0,0,1-2.65.93c-.26.07-.61-.19-.92-.3.17-.31.26-.71.52-.91,1.76-1.37,3.58-2.69,5.36-4a10.91,10.91,0,0,0,3.15-4.16,5.64,5.64,0,0,0,.44-3.45c-.66-4.52-1.38-9-1.95-13.57a26.51,26.51,0,0,1,0-4.88c.05-.87.58-1,1.16-.36a3.26,3.26,0,0,1,.75,1.48c.58,3.22,1.13,6.45,1.62,9.69s.86,6.37,1.3,9.56a8,8,0,0,0,.37,1.66,2.84,2.84,0,0,0,5,1c.64-.71,1.21-1.47,1.88-2.13a1.5,1.5,0,0,1,1-.31c.09,0,.14.52.3.75a4,4,0,0,0,1.06,1.3,1.88,1.88,0,0,0,2.29-.24,4.54,4.54,0,0,0,.95-1.69A3.89,3.89,0,0,1,325.36,54.19Zm21.34.39a3.06,3.06,0,0,0-2.44-1.11c-.29,0-.71.15-.79.35a1.17,1.17,0,0,0,.13.94C344.22,55.76,345.89,55.65,346.7,54.58Z"></path><path class="cls-3" d="M231.43,57.52c-.48-1.14-.88-2-1.23-2.91a5.9,5.9,0,0,1,1.11-5.87,6.65,6.65,0,0,1,8.79-2,13.53,13.53,0,0,1,2.22,1.54c.17.14.13.54.19.82a2.17,2.17,0,0,1-.84,0,7.62,7.62,0,0,0-8.65,1.1,1.61,1.61,0,0,0-.58,1.26c.57,2.49,1.67,4.48,5,4.79a9.4,9.4,0,0,0,5.65-1.45c.82-.46,1.59-1,2.41-1.49a2.34,2.34,0,0,1,.77-.13c0,.33.14.72,0,1-1.69,3.07-2.06,3.37-5.54,4.91A2.29,2.29,0,0,0,239.57,62a13.08,13.08,0,0,0,1.27,2.57,3.74,3.74,0,0,0,3.88,1.38,18.57,18.57,0,0,0,6.62-2.13c2.23-1.25,4.44-2.53,6.64-3.82a1.56,1.56,0,0,0,.64-2.4c-.81-1.5-1.59-3-2.4-4.5a3.61,3.61,0,0,1,.08-3.45c.36-.77.94-.8,1.45-.13a5.59,5.59,0,0,1,1.15,2.84,10.3,10.3,0,0,0,1,2.49,6.68,6.68,0,0,1-.9,7,13.07,13.07,0,0,1-4.78,3.92c-1.94,1-3.85,2-5.78,3a11.14,11.14,0,0,1-6.29.85c-1.76-.15-3.81-2.63-3.92-4.6,0-.88-.11-1.77-.09-2.65a7.81,7.81,0,0,1,.29-1.32c.07-.31.1-.63.17-1.17-.88.35-1.53.62-2.2.86a9.63,9.63,0,0,1-5.84.28,3.86,3.86,0,0,1-2.8-2.55,29.5,29.5,0,0,1-1.93-8.54c-.28-3-.4-6.09-.76-9.12a14.61,14.61,0,0,0-1.18-3.64,4.41,4.41,0,0,1,.6-4.21c.35-.38.74-.41,1,.11a10.49,10.49,0,0,1,.52,1.52A68,68,0,0,1,227.83,45c.33,3,.28,6.17,1.31,9.14A6.64,6.64,0,0,0,231.43,57.52Z"></path><path class="cls-3" d="M295.44,59.81a4.48,4.48,0,0,1-.79-.76c-.3-.57-.68-.62-1.24-.4a26.19,26.19,0,0,0-10.13,6.76,16.52,16.52,0,0,1-4.78,4,6.41,6.41,0,0,1-4.14.56,1.46,1.46,0,0,1-1-.64c-.53-1.13-1-2.3-1.41-3.46a5.69,5.69,0,0,1-.17-.86l-.53.16c-1.85.66-3.24.13-3.67-1.77-.54-2.37-.68-4.82.81-7a1.13,1.13,0,0,1,.29-.38c.14-.1.36-.21.48-.16a.56.56,0,0,1,.24.44,6.92,6.92,0,0,1-.17,1.21,6.26,6.26,0,0,0-.41,1.64c0,.72.12,1.71.57,2a3,3,0,0,0,2.2.09,9.93,9.93,0,0,0,2.25-1.19q4.26-2.47,8.49-5c1-.62,1-1.21-.13-1.71a11.74,11.74,0,0,0-2.25-.7,11.72,11.72,0,0,1-7.23-5.13c-.46-.65-.13-1.86-.16-2.81a4,4,0,0,1,.85,0,13.09,13.09,0,0,0,1.66.5c1.26.13,1.74.91,1.11,2.17a15.63,15.63,0,0,0,1.48.73c1.44.55,2.94,1,4.34,1.62a14.35,14.35,0,0,1,2.53,1.76,1.31,1.31,0,0,1,.38.81A5.68,5.68,0,0,1,282.77,58a49.94,49.94,0,0,1-8.37,5.5c-.9.45-1,1-.67,2.22.3.92.78,1.2,1.82,1.06a9.33,9.33,0,0,0,4.95-2.59c2.08-1.85,4.1-3.76,6.25-5.5a26.7,26.7,0,0,1,3.92-2.43c.6-.33.81-.56.58-1.29-.69-2.12-.49-3.82,1.51-5.36a4.76,4.76,0,0,1,3.82.1c.74.49,1.47,1,2.19,1.49a3.85,3.85,0,0,1,1.3,4.29,2,2,0,0,1-.95.86,15,15,0,0,1-2.29.87c-.88.25-1.37.7-1.25,1.68A3.65,3.65,0,0,1,295.44,59.81Zm-1.77-7.33c-.2.15-.61.3-.73.58s.1.63.3.86c.81,1,1.08,1,2.51.27a3.08,3.08,0,0,0,.63-.62c-.24-.22-.43-.56-.71-.66A17.59,17.59,0,0,0,293.67,52.48Z"></path><path class="cls-3" d="M353.42,44c4.34-4.6,9.77-7.33,15.59-9.41a2.12,2.12,0,0,1,2.32.12,1.54,1.54,0,0,1,.51,2.14q-1.32,2.51-2.61,5c-.59,1.14-1.16,2.3-1.74,3.46-.11.21-.27.4-.47.71a2.34,2.34,0,0,1,.07-2.39c.93-1.89,1.88-3.76,2.94-5.88a8.18,8.18,0,0,0-2.15.35c-3.82,1.79-7.84,3.19-11.23,5.8-.64.5-1.23,1.06-2,1.73l1.47.9a13.21,13.21,0,0,1,1.21.71,2.83,2.83,0,0,1,.52.73l-1,.5a31.65,31.65,0,0,0,2.84,1.8c2.13,1,4.31,2,5.7,4a2.53,2.53,0,0,1,.49,1.1,9.23,9.23,0,0,1-1,5.29.46.46,0,0,1-.11.16A13.59,13.59,0,0,1,359.57,64a6.6,6.6,0,0,1-4-.47A1.3,1.3,0,0,1,355,63a7.27,7.27,0,0,1-.82-1.59,44.68,44.68,0,0,1-2.07-9.87c-.27-3.76-.83-7.51-1.36-11.26a21,21,0,0,0-1-3.62c-.41-1.27.24-2.34.53-3.47,0-.11.3-.25.37-.21a.84.84,0,0,1,.42.43c.92,3.45,2.46,6.77,2.28,10.47C353.38,43.93,353.44,44,353.42,44Zm.53,5.17a3.24,3.24,0,0,0-.07.69c.46,2.6.84,5.22,1.45,7.78a8.23,8.23,0,0,0,1.55,2.65,1.48,1.48,0,0,0,1.07.47,9.37,9.37,0,0,0,6.31-2.61c.69-.59.69-1.08-.09-1.6-1.19-.81-2.49-1.45-3.71-2.22a44.45,44.45,0,0,1-3.79-2.59,17.49,17.49,0,0,1-1.77-2A4.34,4.34,0,0,0,354,49.12Z"></path><path class="cls-3" d="M224.3,57.47a18.42,18.42,0,0,0-2.87-1.85,15.2,15.2,0,0,1-6.32-4.32c-.47-.59-.9-2.42-.49-3a1.21,1.21,0,0,1,1-.23c.81.21,1.59.55,2.38.84s.78.67.26,1.58c.64.32,1.26.66,1.9,1,1.13.55,2.3,1,3.4,1.65a3.31,3.31,0,0,1,1.81,3,5.93,5.93,0,0,1-2.6,5.4c-3.17,2.44-6.31,4.9-10.12,6.29l-.09,0c-1.29.42-2.61,1-3.81-.15s-.84-2.62-.56-4c.12-.64.2-1-.65-.83-1.09.18-1.51-.19-1.86-1.25a5.76,5.76,0,0,1,1.38-6c.54-.61.49-1-.07-1.56a35.46,35.46,0,0,1-2.4-2.92c-.69-.9-.26-1.87-.08-3a10.15,10.15,0,0,1,3.76,1.94l-.72.74a1.4,1.4,0,0,0,.15.24c1.09,1.15,1.2,1.14,1.89-.28s1.33-2.79,2-4.16c.12-.24.47-.35.71-.52.07.31.26.67.17.92-.38,1-.85,2-1.27,2.95-.28.63-.47,1.31-.79,1.92a1,1,0,0,0,.53,1.52,3.19,3.19,0,0,1,1.66,2.75,4.79,4.79,0,0,1-1.85,4.95,5.22,5.22,0,0,0-1.4,1.85c-.36.79.05,1.3.89,1.49a3.89,3.89,0,0,0,2.9-.44A73,73,0,0,0,222,59a16.19,16.19,0,0,1,2.13-1.16ZM208.25,59.8c1-.55,1.95-1.07,2.89-1.66a.84.84,0,0,0,.09-1.49,10.52,10.52,0,0,0-2.15-1.32,1.07,1.07,0,0,0-.94.36A10.66,10.66,0,0,0,207,58.06,1.36,1.36,0,0,0,208.25,59.8Z"></path><path class="cls-3" d="M118.34,64.42c0-2.23,1.07-4,2.11-5.83.15-.26.63-.32,1-.47a3.35,3.35,0,0,1-.12,1.06,17.57,17.57,0,0,1-1,1.91c-1,1.75,0,4.94,2.35,5.43a3.71,3.71,0,0,0,1.93,0,25.18,25.18,0,0,0,9.15-5.16c.07-.07.16-.11.21-.19.24-.41.46-.83.69-1.25a12.13,12.13,0,0,0-1.35,0,22.58,22.58,0,0,1-2.79.4c-2.11,0-3.16-1.4-2.69-3.44a6,6,0,0,1,2.36-3.64,2.09,2.09,0,0,1,2.79-.1,14.16,14.16,0,0,1,2.23,2.28c.38.46.64.54,1.16.22,2-1.21,2-1.19.45-2.89-.54-.61-1-1.3-1.58-1.87-1.38-1.35-1.42-3-1.12-4.72,0-.15.62-.38.73-.29.84.66,1.63,1.39,2.43,2.1.06.06.15.19.12.24-.52,1.13.63,1.48,1,2.19a6.46,6.46,0,0,1,.83,2.42,29.65,29.65,0,0,1-.32,3.74,2.05,2.05,0,0,1-1.43,1.81c-.85.35-1.51.8-1.52,1.89a3,3,0,0,1-.56,1.49c-2.18,3.24-4.77,6.06-8.45,7.61a9.41,9.41,0,0,1-3.56.8,4.53,4.53,0,0,1-2.72-1.06A5.32,5.32,0,0,1,118.34,64.42Zm13.92-7.82a1.43,1.43,0,0,0-1.91-.29.69.69,0,0,0-.08.65C130.53,57.26,131.93,57,132.26,56.6Z"></path><path class="cls-3" d="M197.66,46.75c.89.69,1.82,1.33,2.67,2.07s.81,1.06-.17,1.75c.22.3.43.6.65.89a6.61,6.61,0,0,1-.21,8.64,10.81,10.81,0,0,1-2.31,2.07c-2.36,1.58-4.76,3.1-7.2,4.54a7,7,0,0,1-2.65.9c-2.53.31-5.08.48-7.63.7a8.42,8.42,0,0,1-.87,0l-.09-.28a6.48,6.48,0,0,1,.88-.51c3.73-1.46,7.48-2.86,11.17-4.4a22.68,22.68,0,0,0,3.53-2.18c1.5-1,3-2,4.47-3,1.35-.87,1.47-1.39.5-2.75s-2.09-2.85-3.07-4.31A3.87,3.87,0,0,1,197.66,46.75Z"></path><path class="cls-3" d="M261.29,40.06c.26,1.24.46,2.3.7,3.35.86,3.77,1.91,7.52,2.54,11.33a41.73,41.73,0,0,1,.22,7.34,9.79,9.79,0,0,1-.65,2.54c-.05.16-.3.27-.46.4-.13-.19-.36-.36-.39-.56-.18-1.5-.39-3-.46-4.51-.25-5.56-1.93-10.84-3-16.25-.5-2.64-.72-5.35-1-8a4.89,4.89,0,0,1,.52-1.7,12.72,12.72,0,0,1,1.06,1.29c.76,1.2,1.48,2.43,2.2,3.65.14.24.35.52.32.76a4.64,4.64,0,0,1-.42,1.08l-.76-.4Z"></path><path class="cls-3" d="M294.8,42.1c1.33.94,2.57,1.84,3.84,2.71s2.52,1.65,3.76,2.52A15.39,15.39,0,0,1,306.77,52c.85,1.37.29,2.89.3,4.35,0,.08-.3.25-.34.22a1.23,1.23,0,0,1-.39-.46,14,14,0,0,0-1.29-2.79,14.23,14.23,0,0,0-2.85-2.68c-3.58-2.61-7.5-4.73-10.83-7.73a4.15,4.15,0,0,1-1.26-4.58c.14-.58.51-.69,1-.31a11.56,11.56,0,0,0,1.07.92c.61.37,1.26.67,1.89,1a5.14,5.14,0,0,1,.9.48C295.74,41,295.72,41.32,294.8,42.1Z"></path><path class="cls-3" d="M377.13,40.63c.13,1.23.21,2.46.38,3.68.49,3.49,1.09,7,1.52,10.47a26.63,26.63,0,0,1,.17,5.28,16.59,16.59,0,0,1-1.06,3.6.54.54,0,0,1-.45.25.69.69,0,0,1-.45-.38,2.58,2.58,0,0,1-.09-1.31c.7-1.89,0-3.73-.17-5.56-.5-5-1.12-10.08-1.74-15.11a23.06,23.06,0,0,0-.73-3.7,7.34,7.34,0,0,1,.23-3.81c0-.17.29-.43.42-.41a.77.77,0,0,1,.55.38c.48,1,.9,2,1.38,3s1.15,2.15,1.6,3.26c.17.42.12,1.33-.07,1.4-.7.29-.78-.46-1-.9,0-.08-.14-.12-.2-.18Z"></path><path class="cls-3" d="M136.23,39.57A19.25,19.25,0,0,0,140.65,44c2.41,2,4.76,4.1,7.09,6.22,1.37,1.24,1.33,3,1.4,4.64,0,.24-.2.48-.42,1a9,9,0,0,0-.6-1.53,11.32,11.32,0,0,0-1.58-2.1A59.29,59.29,0,0,0,138,45.4a12.12,12.12,0,0,1-2.36-2.28c-1-1.14-1.9-2.37-2.9-3.5s-.64-2.24-.53-3.41c0-.1.49-.3.62-.23,1,.59,2,1.21,2.93,1.86a8.38,8.38,0,0,1,1.21,1,3.42,3.42,0,0,1,.44.77c-.28,0-.55,0-.83,0A1.12,1.12,0,0,1,136.23,39.57Z"></path><path class="cls-3" d="M196,32.46a5,5,0,0,0-.66.2c-5.62,2.22-11.24,4.44-16.85,6.7a10.58,10.58,0,0,0-1.81,1.24c-.16.11-.43.32-.51.27s-.4-.39-.37-.55a2,2,0,0,1,.47-1.07,10.12,10.12,0,0,1,2.4-1.64c3.61-1.47,7.28-2.81,10.91-4.22,2.52-1,5-2,7.55-3a4,4,0,0,1,1.05-.09,3.28,3.28,0,0,1-.09,1.27c-.54,1-1.2,1.92-1.79,2.88-.43.7-.83,1.42-1.23,2.13s-.21,1.26.56,1.73l.74-1a1.25,1.25,0,0,1-.19,1.74,4.79,4.79,0,0,1-1.73.73c-.08,0-.37-.38-.45-.63a4.81,4.81,0,0,1,1-4.42c.46-.64.82-1.35,1.22-2Z"></path><path class="cls-3" d="M332.13,33.11c1.31,1,3,5.22,2.67,6.48l-.92-.7a6.39,6.39,0,0,0,.06.91c.66,3.46,1.38,6.91,2,10.39a19.49,19.49,0,0,1,.24,4.51,15.47,15.47,0,0,1-.9,3.11l-.27-.05c-.05-.13-.16-.26-.15-.39.24-4-.9-7.82-1.84-11.68a73.2,73.2,0,0,1-1.29-10.18A9.15,9.15,0,0,1,332.13,33.11Z"></path><path class="cls-3" d="M266.28,41.71c-.33-1.09-.16-1.77.54-2.27a48.62,48.62,0,0,1,9.65-5.15c.55-.23,1.1-.47,1.66-.67q5.94-2.16,11.9-4.27a3.09,3.09,0,0,1,1.05,0c-.07.39,0,.91-.26,1.14a3.55,3.55,0,0,1-1.48.93,116.77,116.77,0,0,0-21.21,8.67,5.38,5.38,0,0,0-1,.66A7.66,7.66,0,0,0,266.28,41.71Z"></path><path class="cls-3" d="M251.39,29.32c1,0,1.26.42.87,1.07a2.57,2.57,0,0,1-1.11,1.06c-1.28.52-2.62.85-3.91,1.34-4.68,1.79-9.42,3.44-13.78,6-.57.32-1.07.76-1.63,1.11a3.33,3.33,0,0,1-.77.26c0-.29-.09-.69.07-.86a9.23,9.23,0,0,1,2.38-2.22c4.23-2,8.55-3.88,12.84-5.76,1.39-.61,2.81-1.14,4.21-1.7C250.88,29.46,251.22,29.38,251.39,29.32Z"></path><path class="cls-3" d="M176,29.63a3,3,0,0,1-2.32,2.61,27.89,27.89,0,0,0-3.36,1.19c-3,1.34-6,2.7-9,4.13-1.44.7-2.81,1.56-4.18,2.39a13,13,0,0,0-1.13,1,4.29,4.29,0,0,1-.78.37,2.12,2.12,0,0,1,.12-.81,9.55,9.55,0,0,1,3.15-3c5-3.16,10.59-5.13,16-7.47A8.51,8.51,0,0,1,176,29.63Z"></path><path class="cls-3" d="M132.44,68.36a12.61,12.61,0,0,1,1.64-2c.56-.46,1.24-.11,1.82.28,1.29.89,1.37.87,2.38-.39.54-.67,1.11-1.19,2.06-.56.54.36,1.21.5,1.78.83a1.09,1.09,0,0,1,.43,1.74c-.18.26-.36.52-.52.79a1.07,1.07,0,0,1-1.72.42c-.51-.31-1.06-.55-1.59-.83-.76-.39-1.31-.27-1.65.59a2,2,0,0,1-.59.83c-.28.21-.73.45-1,.36A14.93,14.93,0,0,1,133,69.31C132.78,69.19,132.69,68.81,132.44,68.36Z"></path><path class="cls-3" d="M296,38.7c-.08-.56-.27-1-.14-1.17a6.85,6.85,0,0,1,2-2c4.62-2.22,9.31-4.31,14-6.45a1.52,1.52,0,0,1,.53-.18c.23,0,.58,0,.67.09a.71.71,0,0,1,0,.69,5.24,5.24,0,0,1-1.64,1.43,106.34,106.34,0,0,0-13.84,6.49A14.4,14.4,0,0,0,296,38.7Z"></path><path class="cls-3" d="M425.8,37.77a3.93,3.93,0,0,1-.6,1.43,1.52,1.52,0,0,1-1.3.31c-.23-.07-.39-.79-.35-1.19A8,8,0,0,1,424,36.4c.22-.62.52-1.2.87-2a4.25,4.25,0,0,0-1,.14q-5.34,2.17-10.65,4.41a7.16,7.16,0,0,0-1.19.9,1.86,1.86,0,0,1-.91.34,4.07,4.07,0,0,1,2.08-2.44c3.79-1.72,7.55-3.49,11.35-5.18a9.54,9.54,0,0,1,2.24-.38,17.26,17.26,0,0,1-.67,2.07c-.51,1.1-1.13,2.15-1.69,3.23a.81.81,0,0,0-.08.46,4.06,4.06,0,0,0,.27.61,4.35,4.35,0,0,0,.44-.41,4.72,4.72,0,0,0,.33-.53Z"></path><path class="cls-3" d="M122.1,39.66c-.28-.14-.76-.36-1.23-.61-1-.54-1.19-.49-1.79.49-.69,1.14-.72,1.15-2,.69a5.15,5.15,0,0,0-1-.31,1.11,1.11,0,0,1-1-1.49,7.17,7.17,0,0,1,1.05-2.06c.1-.16.51-.17.78-.15a2.7,2.7,0,0,1,.7.26c.58.21,1.21.68,1.73.58s.84-.84,1.32-1.2a1.49,1.49,0,0,1,1.09-.37,16.05,16.05,0,0,1,2.24.93c.1,0,.16.19.22.3C124.59,37.6,123.28,39.67,122.1,39.66Z"></path><path class="cls-3" d="M91.32,37.39c-1.11-.55-2.07-1-2.94-1.5-.19-.12-.06-.73-.07-1.12,0,0,.1-.07.14-.11,1.68-1.93,1.67-1.92,3.94-.72.26.13.7,0,1-.14.13,0,.23-.2.34-.31a2.49,2.49,0,0,1,4,.37c.34.46.43.91-.08,1.32l-.07.06c-1.52,1.54-1.55,1.59-3.39.47-.84-.51-1.24-.36-1.69.45A6.53,6.53,0,0,1,91.32,37.39Z"></path><path class="cls-3" d="M189.38,39.91c.26,1.08,0,1.61-1,2-2.26.89-4.54,1.71-6.79,2.61-3.47,1.39-7.08,2.47-10.09,4.92a1.07,1.07,0,0,1,.19-1.57,17.09,17.09,0,0,1,3.21-2.11c4.54-1.94,9.13-3.76,13.71-5.62A7.66,7.66,0,0,1,189.38,39.91Z"></path><path class="cls-3" d="M351.91,28.74a.94.94,0,0,1-.36,1.42c-.81.48-1.63.95-2.48,1.37q-5.46,2.67-11,5.3a4.48,4.48,0,0,1-1.18.2c.16-.44.18-1,.49-1.28a12.92,12.92,0,0,1,2.73-1.86c3.82-1.78,7.68-3.46,11.53-5.18C351.72,28.69,351.8,28.73,351.91,28.74Z"></path><path class="cls-3" d="M211.76,42.52c-.8-.27-1.58-.51-2.34-.82-.54-.22-.8-.18-1,.46-.47,1.36-1,1.53-2.23.93l-1.52-.76c-.74-.36-.82-.89-.39-1.54.12-.18.25-.37.38-.54.9-1.23,1.09-1.26,2.32-.4s1.76.83,2.45-.66c.32-.68.73-.77,1.36-.45a20.47,20.47,0,0,0,2,.89.82.82,0,0,1,.52,1.26C213,41.63,212.61,42.33,211.76,42.52Z"></path><path class="cls-3" d="M398.17,68.61a10.53,10.53,0,0,1-2.33-1.88c-.55-.79.31-1.47.84-2.08a1,1,0,0,1,1.5-.16l.63.41c1.11.69,1.3.67,2.05-.43a1,1,0,0,1,1.43-.41.3.3,0,0,0,.08,0c2.52,1,2.56,1.13,1,3.32a1,1,0,0,1-1.45.43c-.23-.11-.45-.23-.67-.35-1.18-.65-1.16-.63-2,.39A4.42,4.42,0,0,1,398.17,68.61Z"></path><path class="cls-3" d="M320.59,44.26l1.72-1.38c-.89.08-1.42-.79-2.33-.26-.51.29-.63-.18-.62-.6,0-1.47,2.48-3.1,3.85-2.61.71.25,1.47.34,2.17.61.45.18,1.05.49,1.17.87a2,2,0,0,1-.4,1.43,2.77,2.77,0,0,1-1,.78c-.91.49-1.82,1-2.77,1.4a6,6,0,0,1-1.6.19Z"></path><path class="cls-3" d="M389.7,42.05l1.45-1.19c-1.23-.62-2.29-1.31-3.59-.52-.44-1.62,1.3-3.65,2.8-3.36a21.42,21.42,0,0,1,3.32,1c1.09.42,1.16.88.56,1.9-1,1.68-2.67,2.08-4.33,2.52Z"></path><path class="cls-3" d="M224.31,28.5c0,.42.15.84,0,1a4.36,4.36,0,0,1-1.4,1.06c-3.16,1.36-6.35,2.64-9.5,4-.9.38-1.72.92-2.6,1.36a3.61,3.61,0,0,1-.77.18c0-.33-.09-.78.07-1a6.3,6.3,0,0,1,1.81-1.47c3.18-1.38,6.41-2.65,9.62-4,.66-.27,1.32-.58,2-.86Z"></path><path class="cls-3" d="M101.46,38.89a2.18,2.18,0,0,1,1-2.47,18.58,18.58,0,0,1,2.58-1.58c3-1.45,6-2.85,9.08-4.24a2.87,2.87,0,0,1,1,0c-.13.32-.16.76-.4.94a11.4,11.4,0,0,1-2,1.27c-3.06,1.55-6.15,3-9.2,4.62A18,18,0,0,0,101.46,38.89Z"></path><path class="cls-3" d="M276.17,43.76c-.07-.46-.25-.85-.13-1a3.59,3.59,0,0,1,1.14-1.09q4-2,8-4a16.07,16.07,0,0,1,2.53-1c.68-.2,1.05.21.68.79a3.41,3.41,0,0,1-1.43,1.2c-1.21.53-2.48.88-3.7,1.37-1,.41-2,.86-3,1.36s-2.16,1.16-3.23,1.76C276.83,43.3,276.64,43.45,276.17,43.76Z"></path><path class="cls-3" d="M167.58,42.88c0-.49,0-1,0-1.46a4.69,4.69,0,0,1,.09-.84c.14-.66.31-1.37,1.14-1.42a1.63,1.63,0,0,1,1.59,1.25c.12.31-.1.75-.16,1.12-.3-.09-.61-.17-.9-.27a3.53,3.53,0,0,1-.51-.32c-.11.8-.22,1.48-.31,2.17a15.18,15.18,0,0,1-.29,2c-.22.7-.63.71-1,.1s-1-1.52-1.49-2.3a.92.92,0,0,0-1.16-.5c-.36.09-1,0-1.13-.24a1.49,1.49,0,0,1,.05-1.29,1.17,1.17,0,0,1,1.15-.25,14.73,14.73,0,0,1,2,1.59,4.28,4.28,0,0,1,.54.71Z"></path><path class="cls-3" d="M148.69,28.54c.49.77.07,1.2-.43,1.47q-3.3,1.81-6.65,3.55c-1,.54-2.06,1.06-3.12,1.51a6,6,0,0,1-1.47.26c.26-.4.43-.95.8-1.17,1.18-.71,2.43-1.29,3.66-1.92L147.87,29Z"></path><path class="cls-3" d="M125.76,38.26l.69-.61c1.76-1.57,3.53-3.12,5.27-4.71.63-.58,0-.95-.37-1.27-1.32-1-1.38-2.16-.07-3.24.31-.25.89-.53,1.14-.4a1.83,1.83,0,0,1,.85,1.13c.17.93-.06,1.89.54,2.81.29.44,0,1.07-.81,1.15a2.1,2.1,0,0,0-1.13.52c-1.47,1.29-2.87,2.64-4.33,3.93a12.93,12.93,0,0,1-1.52,1Z"></path><path class="cls-3" d="M147.59,67.75a8.32,8.32,0,0,1,.85-.41c1.44-.53,2.89-1.06,4.35-1.56a3.64,3.64,0,0,0,2.14-1.73A5,5,0,0,1,156,62.78c.7-.61,1.17-.55,1.56.28a5.59,5.59,0,0,1,.43,2c0,.23-.43.64-.71.68a3.77,3.77,0,0,1-1.77-.07,1.47,1.47,0,0,0-1.45.29,11.81,11.81,0,0,1-2.41,1.14c-1,.36-2.05.6-3.08.86a6,6,0,0,1-.94.09Z"></path><path class="cls-3" d="M345.66,42a5.27,5.27,0,0,1-.63-.32c-.73-.48-1.18-.29-1.25.58s0,1.52-.08,2.27a2.48,2.48,0,0,1-.32.71,6.27,6.27,0,0,1-.62-.36.85.85,0,0,1-.28-.37c-.49-1.25-1.21-2.12-2.74-1.92-.14,0-.53-.53-.47-.69.15-.37.45-.89.77-1a2.23,2.23,0,0,1,2.14.93c.17.21.31.45.55.79.13-.59.22-1,.33-1.48.26-1,.95-1.66,1.61-1.53S345.9,40.75,345.66,42Z"></path><path class="cls-3" d="M92.51,33.27c-.61-.37-1.38-.79-2.08-1.31-.16-.11-.17-.64-.05-.87a13.31,13.31,0,0,1,1.36-2c.15-.17.71-.14,1,0,.77.33,1.81.4,2.05,1.43.15.63-1.1,2.49-1.7,2.71A4.78,4.78,0,0,1,92.51,33.27Z"></path><path class="cls-3" d="M343.4,67.22l.75-.27c1.12-.42,2.24-.83,3.35-1.27A2.28,2.28,0,0,0,349,64c.19-.64.94-1.13,1.44-1.69A7.13,7.13,0,0,1,351.79,64c.58,1.36-.25,2.28-1.74,1.9a2.2,2.2,0,0,0-1.92.39,7.49,7.49,0,0,1-4.67,1.2Z"></path><path class="cls-3" d="M286.12,67.19c1.8-.72,3.58-1.5,5.41-2.13a3.62,3.62,0,0,0,2.29-1.94,1.4,1.4,0,0,1,.09-.17c.4-.65.79-1.36,1.74-1.12.53.14,1.07,1.44.89,2.15a.93.93,0,0,1-.62.52c-.49.08-1,0-1.5,0a2.29,2.29,0,0,0-1.21.39c-1.85,1.66-4.21,2.07-6.46,2.72-.18,0-.42-.08-.62-.12C286.12,67.42,286.12,67.3,286.12,67.19Z"></path><path class="cls-3" d="M423,64.17c1,.53,1.87,1,2.7,1.46a.67.67,0,0,1,.16.67c-.37.75-.81,1.45-1.23,2.17a.25.25,0,0,1-.09,0c-.47.23-2.27-.59-2.88-1.32a1.34,1.34,0,0,1,.14-1.87A14.79,14.79,0,0,1,423,64.17Z"></path><path class="cls-3" d="M310.65,69.35a4.72,4.72,0,0,1,.84-.36A13,13,0,0,0,316,67.45a6.27,6.27,0,0,1,1.71-.49c.55-.14.88-.38.83-1a4,4,0,0,1,.38-1.21L320.06,66a7.33,7.33,0,0,1,.4-.83,1,1,0,0,1,.45-.38c.09,0,.29.22.35.38.41,1-.09,1.66-1.11,1.79a5.68,5.68,0,0,0-1.71.77,9,9,0,0,1-.85.57c-1,.36-2,.62-3,1a7.65,7.65,0,0,1-3.84.43C310.73,69.58,310.69,69.47,310.65,69.35Z"></path><path class="cls-3" d="M322.85,32.51a13.33,13.33,0,0,1,.39-2,1.76,1.76,0,0,1,.89-1.07c.31-.09.91.28,1.15.62a3.36,3.36,0,0,1,.28,1.31,5.68,5.68,0,0,1-.92,0,4.13,4.13,0,0,1-.71-.33,3,3,0,0,0-.3.83c0,.85,0,1.7,0,2.56a1.93,1.93,0,0,1-.24.56c-.21-.1-.49-.15-.62-.31a7.07,7.07,0,0,1-.65-1.05,2,2,0,0,0-1.8-1.16c-.24,0-.68-.27-.68-.42a4.33,4.33,0,0,1,.27-1.51,1.32,1.32,0,0,1,.92.11C321.51,31.15,322.15,31.83,322.85,32.51Z"></path><path class="cls-3" d="M118.53,36.07c-.58-.25-1.38-.59-2.16-1-.15-.07-.33-.43-.27-.54.47-.85,1-1.69,1.51-2.52,0-.05.25,0,.36,0,.74.33,1.49.66,2.2,1a.88.88,0,0,1,.39,1.35C120.14,35.16,119.85,36,118.53,36.07Z"></path><path class="cls-3" d="M355.47,35.47c.09-.25.11-.34.15-.42,1.07-2.3,2.06-2.65,4.27-1.41.25.14.3.63.44,1,0,0-.05.11-.08.17a7.74,7.74,0,0,1-1.19,1.9c-.72.63-1.2-.45-1.87-.57A8.81,8.81,0,0,1,355.47,35.47Z"></path><path class="cls-3" d="M402.44,33.37c-1.76-.9-1.82-.85-1.81,1,0,.88,0,1.76,0,2.65,0,.07-.08.15-.23.4-.19-.29-.34-.49-.45-.7a20.36,20.36,0,0,0-1.19-2,3.92,3.92,0,0,0-1.22-.75c-.27-.16-.77-.24-.81-.43a1.16,1.16,0,0,1,.31-1,1.07,1.07,0,0,1,1-.07,6.73,6.73,0,0,1,1.24,1.26,2.54,2.54,0,0,0,.6.68c0-.22.07-.43.1-.64a6.32,6.32,0,0,1,.25-1.65c.18-.4.79-1,.95-1a3.43,3.43,0,0,1,1.25,1.12C402.59,32.49,402.45,32.9,402.44,33.37Z"></path><path class="cls-3" d="M254.7,43.05a15.4,15.4,0,0,1-1.87,2.07c-.31.24-2.66-1.73-2.64-2.12,0-.59,1.26-2.07,1.71-2.07A4.89,4.89,0,0,1,254.7,43.05Z"></path><path class="cls-3" d="M378,30.7c-.59.35-1,.59-1.44.85-.8.5-1.59,1-2.4,1.5a4.47,4.47,0,0,1-.91.33c0-.33.08-.67.13-1a1.34,1.34,0,0,1,.13-.32c0-.09,0-.18-.09-.2-1-.67-1.1-.76-.35-1.78a5.64,5.64,0,0,1,1.37-1.25.78.78,0,0,1,1.25.38c.24.59-.26.74-.68.89-.17.07-.31.16-.63.33C375.62,31.29,376.78,29.74,378,30.7Z"></path><path class="cls-3" d="M403,70.45a1.56,1.56,0,0,1,1.07-1.58c2.59-1.13,5.19-2.27,7.79-3.37.25-.11.61,0,.91.06-.15.33-.22.85-.47,1-1.25.58-2.57,1-3.84,1.58-1.62.69-3.21,1.44-4.82,2.15A4.57,4.57,0,0,1,403,70.45Z"></path><path class="cls-3" d="M269.4,35.24a14.44,14.44,0,0,0-1.4-2.07,4.31,4.31,0,0,0-1.52-.74c-.32-.14-.74-.15-1-.38a.86.86,0,0,1,.08-.83c.28-.24.81-.51,1.05-.39A8,8,0,0,1,268.37,32a2.43,2.43,0,0,1,.39.69l.35,0c0-.45,0-.91,0-1.37.06-1,.49-1.36,1.43-1.33a.88.88,0,0,1,1,1.1c-.07.78-.52.68-1.08.45s-.72.25-.75.66c-.05.78,0,1.57-.05,2.36,0,.2,0,.41,0,.61Z"></path><path class="cls-3" d="M228.7,63.77a9.49,9.49,0,0,0,.63,1.31c.21.29.57.67.84.66a11.89,11.89,0,0,0,1.91-.42c.36-.08.72-.14,1.28-.24a4.52,4.52,0,0,1-4.57,1.86,1,1,0,0,1-.58-.69c-.09-.55-.16-.93-.87-1s-.79-.66-.38-1.12A7.62,7.62,0,0,1,228.24,63c.19-.13.51-.08.77-.11-.09.26-.17.52-.27.77C228.71,63.78,228.64,63.85,228.7,63.77Z"></path><path class="cls-3" d="M129.33,40.88c-.07.45-.16.89-.26,1.47a2.12,2.12,0,0,1,1.19,2.32,1.76,1.76,0,0,1-2.41,1.21,1,1,0,0,1-.4-.77,30.54,30.54,0,0,1,.84-3.12A5.89,5.89,0,0,1,129,40.8Z"></path><path class="cls-3" d="M243.28,39c.67.49,1.2.87,1.71,1.27a1.29,1.29,0,0,1,.18,2,1.78,1.78,0,0,1-.35.32c-.6.47-1.16,1.19-2,.52-.53-.4-.57-1.89-.15-2.62C242.88,40,243.05,39.5,243.28,39Z"></path><path class="cls-3" d="M146.29,37.59c.09.59-.71,2.3-1.14,2.3a1.68,1.68,0,0,1-1.28-.46,3,3,0,0,1-.19-2.89A24.08,24.08,0,0,1,145,34c.14-.23.51-.34.78-.5a2.9,2.9,0,0,1-.06.84c-.33.88-.8,1.71-1,2.61-.1.36.2.85.32,1.27l.95-.56A1.6,1.6,0,0,1,146.29,37.59Z"></path><path class="cls-3" d="M383.89,47l-1.25,1.52a3,3,0,0,1,1.4-2.94,1.07,1.07,0,0,1,1.51.81,2.64,2.64,0,0,1-.37,2.14c-.5.75-.81,1.63-1.27,2.42-.12.21-.46.29-.71.43a2.55,2.55,0,0,1,.08-.74c.26-.63.56-1.25.86-1.87A1.35,1.35,0,0,0,383.89,47Z"></path><path class="cls-3" d="M413.52,42.27c.59.53,1,.93,1.46,1.28,1,.76.94,1.76-.19,2.26a12.26,12.26,0,0,1-1.73.48,6.45,6.45,0,0,1-.34-1.94A9.22,9.22,0,0,1,413.52,42.27Z"></path><path class="cls-3" d="M229,28.73c1,.79,2.06,1.51,2.39,2.74a21.89,21.89,0,0,1,.51,3.34c0,.21-.23.45-.35.68-.15-.2-.46-.41-.44-.58.23-1.91-.86-3.09-2.17-4.22C228.35,30.17,228.65,29.51,229,28.73Z"></path><path class="cls-3" d="M102,63.32c0,1.17-.52,1.64-1.49,1.57a1.41,1.41,0,0,1-1.39-1.82,25.64,25.64,0,0,1,1.56-3.32.61.61,0,0,1,.45-.18c.13.14.27.39.22.54a10.38,10.38,0,0,1-.47,1,8.11,8.11,0,0,0-.51,1.4.75.75,0,0,0,.2.65c.12.09.43-.07.65-.14s.48-.26.54-.2A1.23,1.23,0,0,1,102,63.32Z"></path><path class="cls-3" d="M251.76,49.37c.45,1.36-1.39,2.53-.37,4.08a6.9,6.9,0,0,1,.62-.67,3.09,3.09,0,0,1,.6-.31c.06.24.13.49.18.74,0,0,0,.11-.07.17-.53,1.38-1.26,2.11-2,1.77-1-.48-.88-1.51-.66-2.33a35.76,35.76,0,0,1,1.29-3.54Z"></path><path class="cls-3" d="M203.76,64.43c0,.51.16.91,0,1.1a5.25,5.25,0,0,1-1.38,1.36A1,1,0,0,1,201,65.7a16.81,16.81,0,0,1,1.13-3.43A3.29,3.29,0,0,1,203.3,61c-.23,1.52-1.82,2.7-.91,4.53Z"></path><path class="cls-3" d="M287.1,41.88c-.27.49-.56,1-.8,1.46a5,5,0,0,0-.53,1.29,4.48,4.48,0,0,0,.11,1.25c.34-.11.67-.23,1-.32s.49-.13.62,0,.21.48.12.58c-.38.46-.76,1-1.27,1.23a1.6,1.6,0,0,1-1.47-.37,2.15,2.15,0,0,1-.07-1.64,30.75,30.75,0,0,1,1.46-3.21c.1-.21.39-.33.59-.49C287,41.71,287,41.79,287.1,41.88Z"></path><path class="cls-3" d="M316,48.3c0,.66.13,1.17-.06,1.42-.38.51-.91,1.17-1.44,1.24-.84.11-1.09-.74-1.11-1.46A8.38,8.38,0,0,1,315,44.56l.32.09c-.12.44-.24.89-.35,1.34a17.55,17.55,0,0,0-.55,2.36c0,.35.28.75.44,1.12l.82-.72A4.84,4.84,0,0,0,316,48.3Z"></path><path class="cls-3" d="M158.32,44.74l-.42,1.37c-.18.62-.4,1.24-.53,1.88a.68.68,0,0,0,.31.59c.13.06.41-.13.6-.24s.42-.28.63-.41a2.69,2.69,0,0,1,.18.77c-.08.94-.72,1.6-1.49,1.5a1.19,1.19,0,0,1-1-1.6c.25-1.19.61-2.35,1-3.51.06-.2.29-.34.44-.51Z"></path><path class="cls-3" d="M415.35,28a4.18,4.18,0,0,1-.21.79c-.27.5-.64.94-.87,1.46a5.32,5.32,0,0,0-.2,1.15l1.26-.27a1.29,1.29,0,0,1-.47,1.58,1.78,1.78,0,0,1-1.42.28,1.11,1.11,0,0,1-.61-1.58c.63-1.23,1.38-2.4,2.07-3.6Z"></path><path class="cls-3" d="M336.45,68a11,11,0,0,0-.86-1.43c-.31-.38-.39-.7,0-1.06a6.6,6.6,0,0,1,1.09-1c.2-.13.59,0,.87.07.1,0,.2.45.16.47a3.14,3.14,0,0,1-.68.28l-.62.18c0,.11,0,.23,0,.34l2.9.22c0,.11,0,.21,0,.32Z"></path><path class="cls-3" d="M371.5,51.14a1.9,1.9,0,0,1-1.11,2.27.82.82,0,0,1-.66-.22,3.37,3.37,0,0,1-.7-1.47,6.22,6.22,0,0,1,1.73-4.06l.27.11c-.14.42-.26.86-.43,1.27a6.71,6.71,0,0,0-.61,1.27,5.29,5.29,0,0,0,.08,1.42l1-.42Z"></path><path class="cls-3" d="M391.86,45c-.14.35-.3.7-.43,1-.32.85-.66,1.68-.91,2.54-.08.28.11.64.18,1,.29-.12.59-.22.87-.37a4,4,0,0,0,.53-.37c.09.75-.89,2.2-1.5,2.26a.67.67,0,0,1-.55-.23,3.32,3.32,0,0,1-.52-1.27,7.65,7.65,0,0,1,2.09-4.66Z"></path><path class="cls-3" d="M404.33,38.13c-.47.68-.95,1.35-1.41,2a3.6,3.6,0,0,0-.61,1,2.34,2.34,0,0,0,.14,1,6.24,6.24,0,0,1,.72-.27,4.62,4.62,0,0,1,.65,0,1.77,1.77,0,0,1,0,.69,1.35,1.35,0,0,1-1.85.79,1.64,1.64,0,0,1-.65-1.94A9.67,9.67,0,0,1,404.13,38Z"></path><path class="cls-3" d="M156.44,33l.71-.34c.42.94.14,1.72-.69,2s-1.08,0-1.26-.82c-.28-1.37.41-2.44.93-3.57.1-.2.49-.27.74-.4a2.63,2.63,0,0,1,0,.83c-.22.73-.5,1.44-.76,2.16Z"></path><path class="cls-3" d="M261.68,65.73c.37,1-.23,1.49-.67,2a1.11,1.11,0,0,1-1.72-1.27c.28-1.29.66-2.56,1-3.84l.49.11c-.08.45-.14.9-.24,1.34a9.94,9.94,0,0,0-.37,1.37,2.68,2.68,0,0,0,.3.92l.79-.34A3.65,3.65,0,0,0,261.68,65.73Z"></path><path class="cls-3" d="M267.93,48.32l.76-1.27c.27,1-.5,2.46-1.24,2.54a1,1,0,0,1-.82-.54c-.53-1.43.48-4.24,2-5.13-.27.61-.56,1.21-.79,1.83a6.83,6.83,0,0,0-.47,1.7C267.32,47.69,267.68,48,267.93,48.32Z"></path><path class="cls-3" d="M110.59,39.82a1.75,1.75,0,0,1-1.51,2.4,1.25,1.25,0,0,1-.86-.67,2.46,2.46,0,0,1,0-1.47,27.86,27.86,0,0,1,1.29-2.56l.3.09a7.83,7.83,0,0,1-.18.84,11.79,11.79,0,0,0-.49,1.49c0,.25.22.54.34.81a5.4,5.4,0,0,0,.75-.4C110.37,40.26,110.43,40.06,110.59,39.82Z"></path><path class="cls-3" d="M386,32.2c-.11.43-.1,1-.37,1.24a2.34,2.34,0,0,1-1.54.41c-.2,0-.5-.75-.48-1.14.08-1.58,1.14-2.64,1.95-3.83l.33.16c-.31.68-.63,1.35-.93,2a5.77,5.77,0,0,0-.39,1.15,1.9,1.9,0,0,0,.17.66,6.61,6.61,0,0,0,.55-.37,3.32,3.32,0,0,0,.32-.42Z"></path><path class="cls-3" d="M220,38.7c-.15.94-1,1.74-.35,2.67a2,2,0,0,0,.28-.12l.87-.49c0,.4.09.91-.11,1.17a5.4,5.4,0,0,1-1.28,1,4.84,4.84,0,0,1-.82-1.34A2.53,2.53,0,0,1,220,38.7Z"></path><path class="cls-3" d="M391.51,70c-.08-.48-.13-.76-.16-1a4,4,0,0,0-1.79-3.17c-.2-.13-.24-.52-.36-.8.33-.08.76-.33,1-.2.44.25,1,.64,1.11,1.08a34.79,34.79,0,0,1,.58,3.68C391.87,69.57,391.73,69.67,391.51,70Z"></path><path class="cls-4" d="M89.16,74.85h3.38l1.29,4.54,1.34-4.54h3.44v1h-.37a.54.54,0,0,0-.42.13.75.75,0,0,0-.11.47v4.23a1.19,1.19,0,0,0,0,.35.32.32,0,0,0,.13.15.71.71,0,0,0,.31.06h.43v1H95v-1h.28a1.27,1.27,0,0,0,.41,0,.39.39,0,0,0,.16-.15,1,1,0,0,0,0-.37V76.13L94.1,82.31h-1l-1.76-6v4.53a.43.43,0,0,0,.06.24.34.34,0,0,0,.16.13.92.92,0,0,0,.33,0h.36v1H89.16v-1h.31a.83.83,0,0,0,.38,0,.28.28,0,0,0,.16-.16,1.13,1.13,0,0,0,0-.4V76.48a1,1,0,0,0,0-.37.3.3,0,0,0-.14-.17.63.63,0,0,0-.31-.06h-.41Z"></path><path class="cls-4" d="M102.14,74.85h1.68l2.23,5.76a1.47,1.47,0,0,0,.33.56.85.85,0,0,0,.52.1v1h-3.53v-1h.22a.82.82,0,0,0,.41-.08.22.22,0,0,0,.12-.19,1.72,1.72,0,0,0-.11-.39l-.22-.68h-2.26l-.28.75a1.22,1.22,0,0,0-.09.32.22.22,0,0,0,.06.15.34.34,0,0,0,.2.1,2.66,2.66,0,0,0,.5,0v1H99v-1a1.32,1.32,0,0,0,.4,0,.57.57,0,0,0,.22-.15,1.45,1.45,0,0,0,.18-.36Zm-.22,4h1.48l-.72-2Z"></path><path class="cls-4" d="M110,74.85h3.62v1h-.3a1.11,1.11,0,0,0-.41.05.31.31,0,0,0-.14.16,1.64,1.64,0,0,0,0,.49v3a4.81,4.81,0,0,1-.08,1,2.18,2.18,0,0,1-.48.91,2.65,2.65,0,0,1-1,.7,3.88,3.88,0,0,1-1.44.24,3.52,3.52,0,0,1-1.52-.3,2.44,2.44,0,0,1-1-.84,2,2,0,0,1-.36-1.1,1.17,1.17,0,0,1,.31-.85A1,1,0,0,1,108,79a1,1,0,0,1,.46.1.8.8,0,0,1,.31.32,1,1,0,0,1,.11.45v.35a1.25,1.25,0,0,0,.14.56.79.79,0,0,0,.33.32,1.18,1.18,0,0,0,.53.12,1,1,0,0,0,.66-.22,1.13,1.13,0,0,0,.35-.6,5.08,5.08,0,0,0,0-.88v-3.1a1,1,0,0,0,0-.3.32.32,0,0,0-.15-.19.78.78,0,0,0-.36-.06H110Z"></path><path class="cls-4" d="M114.36,74.85H118v1h-.32a1.15,1.15,0,0,0-.34,0,.4.4,0,0,0-.18.16.79.79,0,0,0-.06.35v4.26a1.73,1.73,0,0,0,0,.32.18.18,0,0,0,.1.09.85.85,0,0,0,.29,0,3,3,0,0,0,1.15-.19,2.34,2.34,0,0,0,.79-.6,3.72,3.72,0,0,0,.6-1.13l1,.34-1,2.76h-5.69v-1h.35a.87.87,0,0,0,.33,0,.44.44,0,0,0,.17-.16.92.92,0,0,0,.05-.35V76.49a1.11,1.11,0,0,0-.05-.38.36.36,0,0,0-.15-.17.58.58,0,0,0-.31-.06h-.39Z"></path><path class="cls-4" d="M121.29,74.85h3.64v1h-.33a1.06,1.06,0,0,0-.39.05.34.34,0,0,0-.13.16,1.31,1.31,0,0,0,0,.42v4.13a1.3,1.3,0,0,0,0,.43.25.25,0,0,0,.13.14.69.69,0,0,0,.33.06h.4v1h-3.64v-1h.29a1.26,1.26,0,0,0,.42,0,.29.29,0,0,0,.14-.15,1,1,0,0,0,0-.39V76.55a1.47,1.47,0,0,0,0-.46.29.29,0,0,0-.15-.16.87.87,0,0,0-.37-.05h-.33Z"></path><path class="cls-4" d="M131.33,74.85l.64,2.5-1,.29a3.53,3.53,0,0,0-1.12-1.31,2.38,2.38,0,0,0-1.34-.42,1.22,1.22,0,0,0-.73.19.52.52,0,0,0-.26.41.66.66,0,0,0,.24.49,2.21,2.21,0,0,0,.87.4l1.43.42a3.61,3.61,0,0,1,1.7.91,2,2,0,0,1,.5,1.33,2.1,2.1,0,0,1-.77,1.64,3.18,3.18,0,0,1-2.14.73,3.78,3.78,0,0,1-1.09-.15,3.93,3.93,0,0,1-1-.51l-.24.54h-.8l-.52-2.89,1-.25a3.67,3.67,0,0,0,1.1,1.48,2.62,2.62,0,0,0,1.64.59,2.1,2.1,0,0,0,.67-.1.85.85,0,0,0,.39-.29.61.61,0,0,0,.14-.37.67.67,0,0,0-.31-.55,3.59,3.59,0,0,0-1.1-.46l-1.25-.36a5.26,5.26,0,0,1-.77-.3,2.87,2.87,0,0,1-.74-.46,2.07,2.07,0,0,1-.43-.62,2,2,0,0,1,.16-1.89,2.39,2.39,0,0,1,1-.81,3.5,3.5,0,0,1,1.46-.31,3.14,3.14,0,0,1,1.75.51l.21-.38Z"></path><path class="cls-4" d="M136.44,74.85h3.64v1h-.36a.73.73,0,0,0-.35.06.35.35,0,0,0-.15.17,1.12,1.12,0,0,0-.05.45v2.71a3.19,3.19,0,0,0,.15,1.13,1.2,1.2,0,0,0,.46.57,1.5,1.5,0,0,0,1.53,0,1.21,1.21,0,0,0,.49-.54,2.84,2.84,0,0,0,.15-1.09v-3a.62.62,0,0,0,0-.27.29.29,0,0,0-.17-.14,1,1,0,0,0-.38,0h-.29v-1h3.08v1h-.24a1.27,1.27,0,0,0-.45.05.39.39,0,0,0-.18.18,1.23,1.23,0,0,0-.05.45V79.5a3.42,3.42,0,0,1-.23,1.36A2.44,2.44,0,0,1,142,82a3.28,3.28,0,0,1-1.69.41,3.47,3.47,0,0,1-1.24-.21,2.84,2.84,0,0,1-1-.6,2.29,2.29,0,0,1-.57-.83,3.9,3.9,0,0,1-.16-1.29V76.61a1.73,1.73,0,0,0-.05-.51.28.28,0,0,0-.14-.16.74.74,0,0,0-.37-.06h-.34Z"></path><path class="cls-4" d="M149.13,78.33h3.64v1h-.27a1,1,0,0,0-.37,0,.29.29,0,0,0-.14.15,1.13,1.13,0,0,0-.05.4v2.34h-1.1l-.28-.54a4,4,0,0,1-1,.5,3.79,3.79,0,0,1-1.12.16,3.59,3.59,0,0,1-1.86-.49,3.63,3.63,0,0,1-1.33-1.39,4.16,4.16,0,0,1-.48-2,4,4,0,0,1,.48-2,3.55,3.55,0,0,1,1.35-1.37,3.75,3.75,0,0,1,1.88-.5,3.62,3.62,0,0,1,1,.13,3,3,0,0,1,.84.33l.19-.33h.75l.68,2.47-1,.32a7.17,7.17,0,0,0-.79-1.11,2.32,2.32,0,0,0-.67-.45,1.68,1.68,0,0,0-.73-.17,1.71,1.71,0,0,0-.95.29,2,2,0,0,0-.7.86,3.31,3.31,0,0,0-.26,1.37,3.93,3.93,0,0,0,.28,1.52,2.13,2.13,0,0,0,.74,1,1.7,1.7,0,0,0,1,.32,1.84,1.84,0,0,0,.73-.16,1.07,1.07,0,0,0,.47-.35.86.86,0,0,0,.13-.51v-.28a.84.84,0,0,0,0-.35.31.31,0,0,0-.16-.16,1,1,0,0,0-.38,0h-.43Z"></path><path class="cls-4" d="M156,74.85h1.68l2.24,5.76a1.37,1.37,0,0,0,.32.56.85.85,0,0,0,.52.1v1h-3.53v-1h.22a.82.82,0,0,0,.41-.08A.22.22,0,0,0,158,81a1.72,1.72,0,0,0-.11-.39l-.22-.68h-2.26l-.28.75A1.22,1.22,0,0,0,155,81a.22.22,0,0,0,.06.15.34.34,0,0,0,.2.1,2.66,2.66,0,0,0,.5,0v1h-2.88v-1a1.44,1.44,0,0,0,.41,0,.62.62,0,0,0,.21-.15,1.45,1.45,0,0,0,.18-.36Zm-.22,4h1.48l-.72-2Z"></path><path class="cls-4" d="M161.17,74.85h3.38l1.29,4.54,1.34-4.54h3.43v1h-.36a.54.54,0,0,0-.42.13.69.69,0,0,0-.11.47v4.23a1.19,1.19,0,0,0,0,.35.28.28,0,0,0,.13.15.68.68,0,0,0,.31.06h.42v1H167v-1h.28a1.27,1.27,0,0,0,.41,0,.39.39,0,0,0,.16-.15,1,1,0,0,0,.05-.37V76.13l-1.82,6.18h-1l-1.76-6v4.53a.43.43,0,0,0,.06.24.3.3,0,0,0,.16.13.92.92,0,0,0,.33,0h.36v1h-3.06v-1h.3a.91.91,0,0,0,.39,0,.31.31,0,0,0,.16-.16,1.13,1.13,0,0,0,0-.4V76.48a1,1,0,0,0,0-.37.3.3,0,0,0-.14-.17.63.63,0,0,0-.31-.06h-.41Z"></path><path class="cls-4" d="M174.15,74.85h1.68l2.23,5.76a1.35,1.35,0,0,0,.33.56.83.83,0,0,0,.52.1v1h-3.53v-1h.21a.83.83,0,0,0,.42-.08.23.23,0,0,0,.11-.19,1.51,1.51,0,0,0-.1-.39l-.22-.68h-2.27l-.28.75a1.54,1.54,0,0,0-.08.32.22.22,0,0,0,.06.15.34.34,0,0,0,.2.1,2.66,2.66,0,0,0,.5,0v1h-2.88v-1a1.32,1.32,0,0,0,.4,0,.47.47,0,0,0,.21-.15,1.13,1.13,0,0,0,.19-.36Zm-.22,4h1.48l-.72-2Z"></path><path class="cls-4" d="M183,74.85h3.63v1h-.33a1,1,0,0,0-.38.05.36.36,0,0,0-.14.16,1.39,1.39,0,0,0,0,.42v4.13a1.85,1.85,0,0,0,0,.43.29.29,0,0,0,.13.14.77.77,0,0,0,.34.06h.39v1H183v-1h.29a1.19,1.19,0,0,0,.41,0,.28.28,0,0,0,.15-.15,1.09,1.09,0,0,0,0-.39V76.55a1.57,1.57,0,0,0,0-.46.28.28,0,0,0-.16-.16.84.84,0,0,0-.36-.05H183Z"></path><path class="cls-4" d="M193.05,74.85l.64,2.5-1,.29a3.55,3.55,0,0,0-1.13-1.31,2.36,2.36,0,0,0-1.34-.42,1.2,1.2,0,0,0-.72.19.49.49,0,0,0-.26.41.66.66,0,0,0,.24.49,2.08,2.08,0,0,0,.86.4l1.43.42a3.56,3.56,0,0,1,1.7.91,1.93,1.93,0,0,1,.51,1.33,2.1,2.1,0,0,1-.77,1.64,3.19,3.19,0,0,1-2.14.73,3.73,3.73,0,0,1-1.09-.15,4,4,0,0,1-1-.51l-.23.54h-.8l-.53-2.89,1-.25a3.58,3.58,0,0,0,1.1,1.48,2.6,2.6,0,0,0,1.64.59,2,2,0,0,0,.66-.1.89.89,0,0,0,.4-.29.6.6,0,0,0,.13-.37.65.65,0,0,0-.31-.55,3.48,3.48,0,0,0-1.1-.46l-1.24-.36a4.86,4.86,0,0,1-.77-.3,2.87,2.87,0,0,1-.74-.46,1.9,1.9,0,0,1-.43-.62,1.81,1.81,0,0,1-.17-.79,2,2,0,0,1,.33-1.1,2.35,2.35,0,0,1,1-.81,3.52,3.52,0,0,1,1.47-.31,3.11,3.11,0,0,1,1.74.51l.21-.38Z"></path><path class="cls-4" d="M194.68,74.85h3.64v1H198a1,1,0,0,0-.33,0,.38.38,0,0,0-.19.16.79.79,0,0,0-.06.35v4.26a1,1,0,0,0,0,.32.16.16,0,0,0,.09.09.85.85,0,0,0,.29,0,3,3,0,0,0,1.15-.19,2.16,2.16,0,0,0,.79-.6,3.72,3.72,0,0,0,.6-1.13l1,.34-1,2.76h-5.69v-1H195a1,1,0,0,0,.33,0,.49.49,0,0,0,.16-.16.92.92,0,0,0,.05-.35V76.49a1.11,1.11,0,0,0-.05-.38.32.32,0,0,0-.15-.17.58.58,0,0,0-.31-.06h-.39Z"></path><path class="cls-4" d="M204.36,74.85H206l2.24,5.76a1.5,1.5,0,0,0,.32.56.87.87,0,0,0,.52.1v1h-3.52v-1h.21a.79.79,0,0,0,.41-.08.22.22,0,0,0,.12-.19,1.51,1.51,0,0,0-.1-.39l-.22-.68h-2.27l-.28.75a1.22,1.22,0,0,0-.09.32.23.23,0,0,0,.07.15.32.32,0,0,0,.2.1,2.59,2.59,0,0,0,.5,0v1h-2.89v-1a1.39,1.39,0,0,0,.41,0,.62.62,0,0,0,.21-.15,1,1,0,0,0,.18-.36Zm-.23,4h1.48l-.72-2Z"></path><path class="cls-4" d="M209.55,74.85h3.37l1.3,4.54,1.34-4.54H219v1h-.37a.5.5,0,0,0-.41.13.68.68,0,0,0-.12.47v4.23a1.19,1.19,0,0,0,0,.35.29.29,0,0,0,.14.15.66.66,0,0,0,.31.06H219v1H215.4v-1h.28a1.27,1.27,0,0,0,.41,0,.33.33,0,0,0,.16-.15,1,1,0,0,0,.05-.37V76.13l-1.82,6.18h-1l-1.76-6v4.53a.43.43,0,0,0,.06.24.34.34,0,0,0,.16.13.92.92,0,0,0,.33,0h.36v1h-3v-1h.3a.91.91,0,0,0,.39,0,.26.26,0,0,0,.15-.16.93.93,0,0,0,.05-.4V76.48a1.36,1.36,0,0,0,0-.37.32.32,0,0,0-.15-.17.6.6,0,0,0-.31-.06h-.4Z"></path><path class="cls-4" d="M223.53,74.85h3.91a4.54,4.54,0,0,1,2.12.42,3.13,3.13,0,0,1,1.25,1.25A4.44,4.44,0,0,1,231,80a3.35,3.35,0,0,1-.71,1.15,3.28,3.28,0,0,1-1,.77,4.32,4.32,0,0,1-1.15.31,8.25,8.25,0,0,1-1.2.13h-3.44v-1h.26a1,1,0,0,0,.43,0,.32.32,0,0,0,.16-.18,1.32,1.32,0,0,0,.05-.44V76.52a1.32,1.32,0,0,0-.05-.44.36.36,0,0,0-.15-.15,1.32,1.32,0,0,0-.44-.05h-.26ZM226.26,76v4.65a.74.74,0,0,0,0,.28.21.21,0,0,0,.12.11,1.6,1.6,0,0,0,.4,0,2.87,2.87,0,0,0,1.37-.27A2,2,0,0,0,229,80a3.17,3.17,0,0,0,.31-1.43,3.25,3.25,0,0,0-.29-1.41,1.86,1.86,0,0,0-.71-.85,2.45,2.45,0,0,0-1.21-.25Z"></path><path class="cls-4" d="M234.78,74.85h1.67l2.24,5.76a1.5,1.5,0,0,0,.32.56.87.87,0,0,0,.52.1v1H236v-1h.21a.79.79,0,0,0,.41-.08.22.22,0,0,0,.12-.19,1.51,1.51,0,0,0-.1-.39l-.22-.68h-2.27l-.28.75a1.22,1.22,0,0,0-.09.32.19.19,0,0,0,.07.15.32.32,0,0,0,.2.1,2.59,2.59,0,0,0,.5,0v1h-2.89v-1a1.39,1.39,0,0,0,.41,0,.62.62,0,0,0,.21-.15,1.16,1.16,0,0,0,.18-.36Zm-.23,4H236l-.72-2Z"></path><path class="cls-4" d="M240,74.85h3l2.19,4.35V76.54a1.6,1.6,0,0,0,0-.43.45.45,0,0,0-.15-.18.85.85,0,0,0-.35-.05h-.36v-1h3.07v1H247a.78.78,0,0,0-.36.06.26.26,0,0,0-.15.16,1.32,1.32,0,0,0-.05.44v5.77h-1.53l-2.77-5.5v3.84a1.6,1.6,0,0,0,0,.43.32.32,0,0,0,.14.14.8.8,0,0,0,.36,0h.36v1H240v-1h.31a1.07,1.07,0,0,0,.37,0,.3.3,0,0,0,.15-.16.74.74,0,0,0,.06-.34V76.46a.86.86,0,0,0-.05-.36.34.34,0,0,0-.14-.17.73.73,0,0,0-.31-.05H240Z"></path><path class="cls-4" d="M254.47,74.85h1.68l2.23,5.76a1.47,1.47,0,0,0,.33.56.85.85,0,0,0,.52.1v1H255.7v-1h.22a.82.82,0,0,0,.41-.08.22.22,0,0,0,.12-.19,1.72,1.72,0,0,0-.11-.39l-.22-.68h-2.26l-.28.75a1.22,1.22,0,0,0-.09.32.22.22,0,0,0,.06.15.34.34,0,0,0,.2.1,2.66,2.66,0,0,0,.5,0v1h-2.88v-1a1.32,1.32,0,0,0,.4,0,.57.57,0,0,0,.22-.15,1.45,1.45,0,0,0,.18-.36Zm-.22,4h1.48l-.72-2Z"></path><path class="cls-4" d="M259.64,74.85h3.91a4.54,4.54,0,0,1,2.12.42,3.13,3.13,0,0,1,1.25,1.25,4.44,4.44,0,0,1,.23,3.43,3.35,3.35,0,0,1-.71,1.15,3.28,3.28,0,0,1-1,.77,4.32,4.32,0,0,1-1.15.31,8.25,8.25,0,0,1-1.2.13h-3.44v-1h.26a1,1,0,0,0,.43,0,.37.37,0,0,0,.17-.18,1.83,1.83,0,0,0,0-.44V76.52a1.32,1.32,0,0,0-.05-.44.36.36,0,0,0-.15-.15,1.32,1.32,0,0,0-.44-.05h-.26ZM262.37,76v4.65a.74.74,0,0,0,0,.28.21.21,0,0,0,.12.11,1.6,1.6,0,0,0,.4,0,2.9,2.9,0,0,0,1.37-.27,2,2,0,0,0,.8-.86,3.17,3.17,0,0,0,.31-1.43,3.25,3.25,0,0,0-.29-1.41,1.86,1.86,0,0,0-.71-.85,2.45,2.45,0,0,0-1.21-.25Z"></path><path class="cls-4" d="M270.89,74.85h1.67l2.24,5.76a1.5,1.5,0,0,0,.32.56.87.87,0,0,0,.52.1v1h-3.52v-1h.21a.79.79,0,0,0,.41-.08.22.22,0,0,0,.12-.19,1.51,1.51,0,0,0-.1-.39l-.22-.68h-2.27l-.28.75a1.22,1.22,0,0,0-.09.32.19.19,0,0,0,.07.15.32.32,0,0,0,.2.1,2.59,2.59,0,0,0,.5,0v1h-2.89v-1a1.39,1.39,0,0,0,.41,0,.62.62,0,0,0,.21-.15,1,1,0,0,0,.18-.36Zm-.23,4h1.48l-.72-2Z"></path><path class="cls-4" d="M276.59,74.6h.7l.08.25h4.2l.09-.25h.71l.92,2.61-1,.35a9.39,9.39,0,0,0-.47-.85,2.24,2.24,0,0,0-.66-.61,1,1,0,0,0-.55-.17.21.21,0,0,0-.17.06.52.52,0,0,0-.05.28v4.28a2.22,2.22,0,0,0,0,.48.24.24,0,0,0,.09.15.38.38,0,0,0,.17.08h.61v1h-3.64v-1h.22a1.57,1.57,0,0,0,.47,0,.3.3,0,0,0,.15-.16,1.25,1.25,0,0,0,.06-.48V76.21a.4.4,0,0,0-.05-.24.26.26,0,0,0-.18,0,1.31,1.31,0,0,0-.62.2,2.13,2.13,0,0,0-.61.59,9.46,9.46,0,0,0-.45.84l-1-.35Z"></path><path class="cls-4" d="M287.43,74.85H292a7.16,7.16,0,0,1,1,.08,2.59,2.59,0,0,1,.95.35,2.17,2.17,0,0,1,.66.69,2,2,0,0,1,.23.94,1.75,1.75,0,0,1-.6,1.38,3.12,3.12,0,0,1-1.44.69l1.53,1.78.07.08a1.7,1.7,0,0,0,.27.27.85.85,0,0,0,.25.13,1.46,1.46,0,0,0,.34,0h.32v1h-2.39l-2.39-3.22h-.62v1.49a1.64,1.64,0,0,0,0,.49.26.26,0,0,0,.14.15.78.78,0,0,0,.37,0h.35v1h-3.65v-1h.33a.86.86,0,0,0,.37,0,.35.35,0,0,0,.17-.17,2.5,2.5,0,0,0,0-.4v-4.2a1,1,0,0,0,0-.35.21.21,0,0,0-.13-.13.65.65,0,0,0-.29-.06h-.43Zm2.75,1.23V78h1.1a3,3,0,0,0,1-.12,1.05,1.05,0,0,0,.49-.34,1,1,0,0,0,.16-.55.84.84,0,0,0-.15-.5.89.89,0,0,0-.44-.31,2.83,2.83,0,0,0-.91-.1Z"></path><path class="cls-4" d="M296,74.85h6.22l.85,2.36-1,.34a3,3,0,0,0-.57-.92,1.51,1.51,0,0,0-.73-.47,3.16,3.16,0,0,0-.92-.12h-1.14V77.9h.37a1.78,1.78,0,0,0,.57-.06.36.36,0,0,0,.21-.19,1.41,1.41,0,0,0,.07-.52v-.29h.95V80H300v-.32a1.12,1.12,0,0,0-.08-.48.37.37,0,0,0-.21-.2,1.84,1.84,0,0,0-.6-.06h-.33v1.72a1.78,1.78,0,0,0,0,.33.2.2,0,0,0,.11.09,1.11,1.11,0,0,0,.33,0h.63a3,3,0,0,0,1.18-.2,2.21,2.21,0,0,0,.86-.65,3.29,3.29,0,0,0,.58-1.06l1,.33-1,2.78H296v-1h.18a1.41,1.41,0,0,0,.5,0,.32.32,0,0,0,.19-.19,2.09,2.09,0,0,0,0-.45V76.52a1.3,1.3,0,0,0,0-.43.36.36,0,0,0-.14-.16,1,1,0,0,0-.38-.05H296Z"></path><path class="cls-4" d="M309.48,74.85l.64,2.5-1,.29A3.64,3.64,0,0,0,308,76.33a2.38,2.38,0,0,0-1.34-.42,1.16,1.16,0,0,0-.72.19.51.51,0,0,0-.27.41.66.66,0,0,0,.24.49,2.21,2.21,0,0,0,.87.4l1.43.42a3.56,3.56,0,0,1,1.7.91,1.92,1.92,0,0,1,.5,1.33,2.07,2.07,0,0,1-.77,1.64,3.15,3.15,0,0,1-2.13.73,3.73,3.73,0,0,1-1.09-.15,3.84,3.84,0,0,1-1-.51l-.24.54h-.79l-.53-2.89,1-.25a3.5,3.5,0,0,0,1.1,1.48,2.57,2.57,0,0,0,1.63.59,2.1,2.1,0,0,0,.67-.1.89.89,0,0,0,.4-.29.6.6,0,0,0,.13-.37.65.65,0,0,0-.31-.55,3.59,3.59,0,0,0-1.1-.46l-1.25-.36a5.23,5.23,0,0,1-.76-.3,2.87,2.87,0,0,1-.74-.46,1.76,1.76,0,0,1-.43-.62,1.82,1.82,0,0,1-.18-.79,2,2,0,0,1,.33-1.1,2.39,2.39,0,0,1,1-.81,3.5,3.5,0,0,1,1.46-.31,3.12,3.12,0,0,1,1.75.51l.21-.38Z"></path><path class="cls-4" d="M313.79,74.85h1.67l2.24,5.76a1.5,1.5,0,0,0,.32.56.88.88,0,0,0,.53.1v1H315v-1h.21a.77.77,0,0,0,.41-.08.22.22,0,0,0,.12-.19,1.51,1.51,0,0,0-.1-.39l-.22-.68h-2.27l-.28.75a1.07,1.07,0,0,0-.08.32.22.22,0,0,0,.06.15.34.34,0,0,0,.2.1,2.66,2.66,0,0,0,.5,0v1h-2.88v-1a1.32,1.32,0,0,0,.4,0,.47.47,0,0,0,.21-.15,1.13,1.13,0,0,0,.19-.36Zm-.22,4h1.48l-.72-2Z"></path><path class="cls-4" d="M319,74.85h3.37l1.3,4.54L325,74.85h3.43v1h-.37a.5.5,0,0,0-.41.13.68.68,0,0,0-.12.47v4.23a1.19,1.19,0,0,0,0,.35.34.34,0,0,0,.14.15.68.68,0,0,0,.31.06h.42v1h-3.59v-1h.28a1.23,1.23,0,0,0,.41,0,.33.33,0,0,0,.16-.15,1,1,0,0,0,.05-.37V76.13l-1.81,6.18h-1l-1.75-6v4.53a.43.43,0,0,0,.05.24.34.34,0,0,0,.16.13.94.94,0,0,0,.34,0H322v1h-3v-1h.3a.91.91,0,0,0,.39,0,.26.26,0,0,0,.15-.16.89.89,0,0,0,.06-.4V76.48a1.23,1.23,0,0,0,0-.37.28.28,0,0,0-.15-.17.56.56,0,0,0-.3-.06H319Z"></path><path class="cls-4" d="M333,74.85h3.38l1.29,4.54L339,74.85h3.43v1h-.36a.54.54,0,0,0-.42.13.75.75,0,0,0-.11.47v4.23a1.19,1.19,0,0,0,0,.35.32.32,0,0,0,.13.15.71.71,0,0,0,.31.06h.42v1h-3.58v-1h.28a1.27,1.27,0,0,0,.41,0,.39.39,0,0,0,.16-.15,1,1,0,0,0,.05-.37V76.13l-1.82,6.18h-1l-1.76-6v4.53a.43.43,0,0,0,.06.24.3.3,0,0,0,.16.13.92.92,0,0,0,.33,0H336v1H333v-1h.3a.91.91,0,0,0,.39,0,.28.28,0,0,0,.16-.16,1.13,1.13,0,0,0,.05-.4V76.48a1,1,0,0,0,0-.37.3.3,0,0,0-.14-.17.63.63,0,0,0-.31-.06H333Z"></path><path class="cls-4" d="M343.26,74.85h6.23l.85,2.36-1,.34a3,3,0,0,0-.57-.92,1.51,1.51,0,0,0-.73-.47,3.18,3.18,0,0,0-.93-.12H346V77.9h.37a1.78,1.78,0,0,0,.57-.06.36.36,0,0,0,.21-.19,1.47,1.47,0,0,0,.06-.52v-.29h.95V80h-.95v-.32a1.15,1.15,0,0,0-.07-.48.44.44,0,0,0-.21-.2,1.84,1.84,0,0,0-.6-.06H346v1.72a1.16,1.16,0,0,0,0,.33.17.17,0,0,0,.11.09,1.11,1.11,0,0,0,.33,0h.63a3,3,0,0,0,1.18-.2,2.28,2.28,0,0,0,.86-.65,3.29,3.29,0,0,0,.58-1.06l1,.33-1,2.78h-6.45v-1h.19a1.41,1.41,0,0,0,.5,0,.29.29,0,0,0,.18-.19,1.82,1.82,0,0,0,0-.45V76.52a1.3,1.3,0,0,0,0-.43.33.33,0,0,0-.15-.16,1,1,0,0,0-.37-.05h-.34Z"></path><path class="cls-4" d="M351.17,74.85h3.64v1h-.32a1.07,1.07,0,0,0-.33,0,.38.38,0,0,0-.19.16.79.79,0,0,0-.06.35v4.26a1,1,0,0,0,0,.32.15.15,0,0,0,.1.09.81.81,0,0,0,.29,0,3.06,3.06,0,0,0,1.15-.19,2.21,2.21,0,0,0,.78-.6,3.33,3.33,0,0,0,.6-1.13l1,.34-1,2.76h-5.69v-1h.36a1,1,0,0,0,.33,0,.41.41,0,0,0,.16-.16.92.92,0,0,0,.05-.35V76.49a1.11,1.11,0,0,0-.05-.38.3.3,0,0,0-.14-.17.63.63,0,0,0-.31-.06h-.4Z"></path><path class="cls-4" d="M360.85,74.85h1.67l2.24,5.76a1.5,1.5,0,0,0,.32.56.88.88,0,0,0,.53.1v1h-3.53v-1h.21a.77.77,0,0,0,.41-.08.22.22,0,0,0,.12-.19,1.51,1.51,0,0,0-.1-.39l-.22-.68h-2.27l-.28.75a1.07,1.07,0,0,0-.08.32.22.22,0,0,0,.06.15.34.34,0,0,0,.2.1,2.66,2.66,0,0,0,.5,0v1h-2.88v-1a1.32,1.32,0,0,0,.4,0,.47.47,0,0,0,.21-.15,1.13,1.13,0,0,0,.19-.36Zm-.22,4h1.48l-.73-2Z"></path><path class="cls-4" d="M365.62,74.85h3.7v1h-.27a.87.87,0,0,0-.37.05.16.16,0,0,0-.08.15,1,1,0,0,0,.17.41l1,1.62,1.09-1.69c.1-.14.15-.23.16-.24a.25.25,0,0,0,0-.12.14.14,0,0,0-.06-.13.52.52,0,0,0-.28-.05h-.38v-1h3v1a1.53,1.53,0,0,0-.55.09,1.4,1.4,0,0,0-.38.41l-2,2.9v1.33a1.49,1.49,0,0,0,0,.46.26.26,0,0,0,.16.15,1,1,0,0,0,.43,0h.26v1h-3.64v-1h.2a1.27,1.27,0,0,0,.49,0,.35.35,0,0,0,.17-.17,1.58,1.58,0,0,0,0-.48V79.4l-2-3a1.36,1.36,0,0,0-.41-.44,1.44,1.44,0,0,0-.51-.06Z"></path><path class="cls-4" d="M373.48,74.85h3.63v1h-.35a.73.73,0,0,0-.35.06.44.44,0,0,0-.16.17,1.45,1.45,0,0,0,0,.45v2.71a3.19,3.19,0,0,0,.15,1.13,1.14,1.14,0,0,0,.46.57,1.35,1.35,0,0,0,.75.2,1.39,1.39,0,0,0,.78-.22,1.21,1.21,0,0,0,.49-.54,2.88,2.88,0,0,0,.14-1.09v-3a.64.64,0,0,0,0-.27.32.32,0,0,0-.17-.14,1,1,0,0,0-.38,0h-.29v-1h3.08v1h-.24a1.27,1.27,0,0,0-.45.05.41.41,0,0,0-.19.18,1.68,1.68,0,0,0,0,.45V79.5a3.61,3.61,0,0,1-.23,1.36A2.49,2.49,0,0,1,379,82a3.28,3.28,0,0,1-1.69.41,3.47,3.47,0,0,1-1.24-.21,2.84,2.84,0,0,1-.95-.6,2.29,2.29,0,0,1-.57-.83,3.85,3.85,0,0,1-.17-1.29V76.61a1.86,1.86,0,0,0,0-.51.28.28,0,0,0-.14-.16.77.77,0,0,0-.37-.06h-.34Z"></path><path class="cls-4" d="M385.53,74.85h3.94a4.33,4.33,0,0,1,1.24.15,2.42,2.42,0,0,1,.85.47,2.07,2.07,0,0,1,.55.73,2.11,2.11,0,0,1,.19.9,2,2,0,0,1-.73,1.6,3,3,0,0,1-2,.65h-1.27v1.4a1.11,1.11,0,0,0,0,.33.43.43,0,0,0,.15.15.94.94,0,0,0,.34,0h.37v1h-3.63v-1h.25a1.41,1.41,0,0,0,.44,0,.41.41,0,0,0,.16-.16,1.34,1.34,0,0,0,0-.43v-4.1a1.53,1.53,0,0,0,0-.45.31.31,0,0,0-.14-.16.88.88,0,0,0-.35-.05h-.36Zm2.74,1.22v2.12h.63a2.28,2.28,0,0,0,.86-.12,1.12,1.12,0,0,0,.44-.37,1.07,1.07,0,0,0,.16-.59,1,1,0,0,0-.39-.82,1.45,1.45,0,0,0-.88-.22Z"></path><path class="cls-4" d="M395.43,74.85h1.68l2.23,5.76a1.35,1.35,0,0,0,.33.56.83.83,0,0,0,.52.1v1h-3.53v-1h.22a.82.82,0,0,0,.41-.08.23.23,0,0,0,.11-.19,1.51,1.51,0,0,0-.1-.39l-.22-.68h-2.27l-.28.75a1.54,1.54,0,0,0-.08.32.22.22,0,0,0,.06.15.34.34,0,0,0,.2.1,2.66,2.66,0,0,0,.5,0v1h-2.88v-1a1.32,1.32,0,0,0,.4,0,.47.47,0,0,0,.21-.15,1.13,1.13,0,0,0,.19-.36Zm-.22,4h1.48l-.72-2Z"></path><path class="cls-4" d="M400.58,74.85h3.64v1h-.33a.82.82,0,0,0-.38.06.27.27,0,0,0-.14.16,1.35,1.35,0,0,0-.05.45v1.3H406v-1.4a1.24,1.24,0,0,0,0-.34.28.28,0,0,0-.15-.18,1.35,1.35,0,0,0-.45-.05h-.28v-1h3.65v1h-.3a1.22,1.22,0,0,0-.42.05.4.4,0,0,0-.14.15,2,2,0,0,0,0,.47v4a1.49,1.49,0,0,0,.05.48.31.31,0,0,0,.16.16,1.6,1.6,0,0,0,.48,0h.21v1h-3.65v-1h.24a1.25,1.25,0,0,0,.46,0,.3.3,0,0,0,.16-.15,1.49,1.49,0,0,0,.05-.48V79h-2.72v1.58a1.4,1.4,0,0,0,0,.46.29.29,0,0,0,.16.18,1.49,1.49,0,0,0,.45,0h.25v1h-3.64v-1h.25a1.19,1.19,0,0,0,.44,0,.3.3,0,0,0,.16-.15,1,1,0,0,0,.05-.42V76.6a1.41,1.41,0,0,0-.05-.5.28.28,0,0,0-.14-.16.77.77,0,0,0-.37-.06h-.34Z"></path><path class="cls-4" d="M412.29,74.85H414l2.24,5.76a1.5,1.5,0,0,0,.32.56.85.85,0,0,0,.52.1v1h-3.53v-1h.22a.82.82,0,0,0,.41-.08.22.22,0,0,0,.12-.19,2.14,2.14,0,0,0-.1-.39l-.23-.68h-2.26l-.28.75a1.22,1.22,0,0,0-.09.32.22.22,0,0,0,.06.15.34.34,0,0,0,.2.1,2.73,2.73,0,0,0,.51,0v1h-2.89v-1a1.39,1.39,0,0,0,.41,0,.62.62,0,0,0,.21-.15,1.45,1.45,0,0,0,.18-.36Zm-.23,4h1.48l-.72-2Z"></path><path class="cls-4" d="M417.47,74.85h3l2.18,4.35V76.54a1.79,1.79,0,0,0,0-.43.45.45,0,0,0-.15-.18.88.88,0,0,0-.35-.05h-.36v-1h3.07v1h-.34a.86.86,0,0,0-.37.06.33.33,0,0,0-.15.16,1.41,1.41,0,0,0,0,.44v5.77h-1.53l-2.77-5.5v3.84a1.26,1.26,0,0,0,0,.43.27.27,0,0,0,.14.14.8.8,0,0,0,.36,0h.36v1h-3.09v-1h.32a1.07,1.07,0,0,0,.37,0,.34.34,0,0,0,.15-.16.74.74,0,0,0,.06-.34V76.46a1.06,1.06,0,0,0-.05-.36.36.36,0,0,0-.15-.17.67.67,0,0,0-.3-.05h-.4Z"></path><path class="cls-4" d="M430,78.33h3.63v1h-.27a.91.91,0,0,0-.36,0,.28.28,0,0,0-.15.15,1.13,1.13,0,0,0-.05.4v2.34h-1.09l-.29-.54a4,4,0,0,1-1,.5,3.79,3.79,0,0,1-1.12.16,3.59,3.59,0,0,1-1.86-.49A3.54,3.54,0,0,1,426,80.55a4.06,4.06,0,0,1-.49-2,4,4,0,0,1,.48-2,3.55,3.55,0,0,1,1.35-1.37,3.75,3.75,0,0,1,1.88-.5,3.62,3.62,0,0,1,1,.13,3,3,0,0,1,.84.33l.2-.33H432l.68,2.47-1,.32a7.17,7.17,0,0,0-.79-1.11,2.19,2.19,0,0,0-.67-.45,1.65,1.65,0,0,0-.73-.17,1.71,1.71,0,0,0-.95.29,2.08,2.08,0,0,0-.7.86,3.32,3.32,0,0,0-.25,1.37,3.75,3.75,0,0,0,.28,1.52,2,2,0,0,0,.73,1,1.72,1.72,0,0,0,1,.32,1.81,1.81,0,0,0,.73-.16,1,1,0,0,0,.47-.35.86.86,0,0,0,.13-.51v-.28a.84.84,0,0,0,0-.35.34.34,0,0,0-.15-.16,1.1,1.1,0,0,0-.39,0H430Z"></path><polygon class="cls-5" points="24.94 90.92 25.53 87.96 25.93 88.04 27.02 90.67 27.48 88.34 27.86 88.42 27.27 91.38 26.87 91.3 25.78 88.67 25.32 90.99 24.94 90.92"></polygon><polygon class="cls-5" points="27.94 91.5 28.52 88.55 30.66 88.97 30.59 89.32 28.85 88.97 28.67 89.88 30.3 90.2 30.23 90.55 28.6 90.23 28.4 91.23 30.22 91.59 30.15 91.94 27.94 91.5"></polygon><path class="cls-5" d="M32.3,91.16l.07-.35,1.25.25-.21,1.09a2.05,2.05,0,0,1-.67.23,1.78,1.78,0,0,1-.65,0,1.73,1.73,0,0,1-.75-.35,1.24,1.24,0,0,1-.44-.64,1.78,1.78,0,0,1,0-.83,1.9,1.9,0,0,1,.33-.77,1.16,1.16,0,0,1,.63-.45,1.61,1.61,0,0,1,.82,0,1.4,1.4,0,0,1,.56.22.92.92,0,0,1,.35.36,1.38,1.38,0,0,1,.13.53l-.38,0a1,1,0,0,0-.09-.39A.73.73,0,0,0,33,89.8a1.14,1.14,0,0,0-.39-.16,1.3,1.3,0,0,0-.48,0,.92.92,0,0,0-.6.42,1.71,1.71,0,0,0-.23,1.26.91.91,0,0,0,.32.47,1.22,1.22,0,0,0,.53.24,1.46,1.46,0,0,0,.51,0,1.15,1.15,0,0,0,.41-.14l.11-.55Z"></path><polygon class="cls-5" points="33.91 92.68 34.49 89.72 36.63 90.14 36.56 90.49 34.82 90.15 34.64 91.05 36.27 91.37 36.2 91.72 34.57 91.4 34.37 92.41 36.18 92.76 36.12 93.11 33.91 92.68"></polygon><path class="cls-5" d="M36.66,93.22l.58-3,1.32.26a1.75,1.75,0,0,1,.58.2.61.61,0,0,1,.27.34.84.84,0,0,1,0,.47.82.82,0,0,1-.31.49,1.06,1.06,0,0,1-.68.16.8.8,0,0,1,.21.19,2.2,2.2,0,0,1,.24.46l.36.9-.49-.1-.28-.69c-.07-.2-.14-.35-.19-.46a1.07,1.07,0,0,0-.17-.24.91.91,0,0,0-.16-.11l-.21-.06L37.31,92l-.25,1.32Zm.72-1.57.84.16a1.75,1.75,0,0,0,.43,0,.44.44,0,0,0,.26-.14.42.42,0,0,0,.14-.25.45.45,0,0,0-.09-.37.69.69,0,0,0-.46-.23l-.93-.18Z"></path><rect class="cls-5" x="38.69" y="92.18" width="3.01" height="0.4" transform="translate(-58.19 114.06) rotate(-78.92)"></rect><path class="cls-5" d="M54.67,94.19l-.64-3,1.15-.25a2.59,2.59,0,0,1,.47-.06.89.89,0,0,1,.41.06.77.77,0,0,1,.3.25.88.88,0,0,1,.18.39.92.92,0,0,1-.11.71,1.21,1.21,0,0,1-.84.46l-.78.17.26,1.23Zm.07-1.69.78-.16a.87.87,0,0,0,.53-.26.57.57,0,0,0,.08-.45.66.66,0,0,0-.16-.3.45.45,0,0,0-.3-.13,1.33,1.33,0,0,0-.38,0l-.78.16Z"></path><path class="cls-5" d="M56.86,93.73l.53-3.3.44-.09,1.88,2.79-.46.1-.54-.85-1.29.27-.13,1Zm.62-1.44,1-.21L58,91.3c-.15-.24-.26-.43-.34-.59a4.44,4.44,0,0,1-.05.62Z"></path><polygon class="cls-5" points="60.05 93.06 59.41 90.01 59.82 89.92 60.08 91.18 61.66 90.85 61.4 89.59 61.81 89.51 62.44 92.56 62.04 92.65 61.74 91.21 60.16 91.54 60.46 92.98 60.05 93.06"></polygon><path class="cls-5" d="M62.78,92.49l.54-3.3.43-.09,1.89,2.79-.46.1-.55-.85-1.28.27-.14,1Zm.62-1.44,1-.22-.49-.77c-.15-.24-.27-.43-.35-.59a4.4,4.4,0,0,1,0,.62Z"></path><polygon class="cls-5" points="65.96 91.83 65.32 88.78 65.73 88.69 67.83 90.75 67.33 88.35 67.72 88.27 68.36 91.33 67.95 91.41 65.84 89.35 66.35 91.75 65.96 91.83"></polygon><path class="cls-5" d="M70.22,89.69l-.08-.36,1.3-.28.23,1.14a2.27,2.27,0,0,1-.54.49,2,2,0,0,1-.62.25,1.78,1.78,0,0,1-.86,0,1.34,1.34,0,0,1-.67-.44,1.87,1.87,0,0,1-.36-.78,2,2,0,0,1,0-.87,1.23,1.23,0,0,1,.41-.69,1.71,1.71,0,0,1,.77-.35,1.63,1.63,0,0,1,.62,0,1.05,1.05,0,0,1,.48.21,1.32,1.32,0,0,1,.33.45l-.34.18a1,1,0,0,0-.25-.33.59.59,0,0,0-.33-.15,1.09,1.09,0,0,0-.44,0,1.39,1.39,0,0,0-.46.19.86.86,0,0,0-.28.29,1.09,1.09,0,0,0-.13.34,1.73,1.73,0,0,0,0,.64,1.44,1.44,0,0,0,.28.65.9.9,0,0,0,.49.33,1.35,1.35,0,0,0,.6,0,1.13,1.13,0,0,0,.49-.21,1.75,1.75,0,0,0,.34-.29l-.13-.57Z"></path><path class="cls-6" d="M77.59,82a1,1,0,0,1,.4.84,7.9,7.9,0,0,1-.18,2.92s-.42.59-.51-1.46.29-2.3.29-2.3"></path><path class="cls-7" d="M77,83.13a.76.76,0,0,0-.34-.56c-.1-.08-.17-.1-.22-.08s-.08.1-.1.22c-.16.69,0,1.41-.11,2.11s-.41.25-.41.25a7.61,7.61,0,0,1,0-1.77s.08-1.52-.29-1.2-.34,1-.32,2.25-.6.5-.6.5a6.43,6.43,0,0,1-.6-2c-.16-.11-.26.13-.26.13-.1.45-.3.4-.3.4-.4.16-1,.39-1.12.86a2,2,0,0,0,0,1.49.94.94,0,0,0,1.39-.09c.39-.46.49-.23.49-.23a2.46,2.46,0,0,0,1.84.78c.81,0,.9-.56,1-.93a8.54,8.54,0,0,0,0-2.09m-3.23,1.6c0,.3-.74.44-1,.22a5.55,5.55,0,0,1,.65-1.15c.31-.33.36.63.33.93"></path><path class="cls-7" d="M22.1,82.72a.53.53,0,0,0-.76-.34c-.44.17-.41.79-.41.79-.17.37-.41.4-.41.4-.21.11-.06.36-.06.36l.45.9s.08.33-.34.39a3.78,3.78,0,0,1-1,0c-.33,0-.4-.37-.4-.37-.23-.86-.59-.67-.59-.67-.39-.05-.63.37-.63.37s-.28.4-.39-.06a3.71,3.71,0,0,0-.41-.95.72.72,0,0,0-.45-.31s-.16-.06-.2,0a.26.26,0,0,0,0,.28s.54.34.62.6a.58.58,0,0,1-.07.61,1,1,0,0,1-.5.12c-.19,0-.09.23-.09.23s.17.25.28.28a.69.69,0,0,0,.25,0l.61,0c.24,0,.29.27.29.27a.61.61,0,0,0,.35.5.72.72,0,0,0,.83-.22.33.33,0,0,1,.34-.09,5,5,0,0,0,2-.3s.18,0,.05-.25-.23-.47-.34-.71-.3-.62,0-.66c.09,0,.11.1.2.16a.42.42,0,0,0,.58-.09,1.64,1.64,0,0,0,.11-1.12m-3.42,2.72a.36.36,0,1,1,.31-.36.34.34,0,0,1-.31.36m2.95-2c-.11,0-.21-.14-.21-.33s.1-.32.21-.32.22.14.22.32-.1.33-.22.33"></path><path class="cls-8" d="M74,90.56a.5.5,0,0,1-.33-.12c-1.34-1.17-4.4-4-3.87-5.5a2.49,2.49,0,0,0,0-1c-.17-1.45-.43-3.62,3.1-6.19a6,6,0,0,1,4.68-1.41,4.14,4.14,0,0,1,2.61,1.76l3.53,6a.59.59,0,0,1,.07.29A8.06,8.06,0,0,1,82,88.83a.63.63,0,0,1-.38.17.49.49,0,0,1-.38-.18c-1.14-1.36-2.25-2-3.31-1.83-2.06.28-3.42,3.25-3.44,3.27a.49.49,0,0,1-.35.29Zm2.75-13.32a5.67,5.67,0,0,0-3.27,1.3c-3.06,2.22-2.86,3.9-2.69,5.26a3.18,3.18,0,0,1-.05,1.48c-.17.47,1.27,2.29,3.11,4,.58-1,1.94-3,3.9-3.26a4.43,4.43,0,0,1,3.8,1.71,7,7,0,0,0,1.22-3.22l-3.45-5.9a3.2,3.2,0,0,0-2-1.29A3.08,3.08,0,0,0,76.75,77.24Z"></path><path class="cls-9" d="M81.58,89a.5.5,0,0,1-.44-.27l-3.72-7.18a.49.49,0,0,1,0-.41.53.53,0,0,1,.28-.29s1.06-.51,1.18-2.94a.5.5,0,0,1,.52-.48.51.51,0,0,1,.48.53,4.74,4.74,0,0,1-1.34,3.53L82,88.27a.49.49,0,0,1-.22.67A.46.46,0,0,1,81.58,89Z"></path><path class="cls-8" d="M46.45,44a.51.51,0,0,1-.31-.11.47.47,0,0,1-.19-.38L45.9,40a.51.51,0,0,1,.16-.37.49.49,0,0,1,.38-.14l1.17.11a.51.51,0,0,1,.46.49l0,3.15a.5.5,0,0,1-.4.49L46.55,44Zm.46-3.46,0,2.34.17,0,0-2.29Z"></path><path class="cls-8" d="M53.27,97a.48.48,0,0,1-.39-.19s-2.3-2.9-5.45-3.07c-1.87-.1-3.7.77-5.45,2.57a.51.51,0,0,1-.86-.4l.74-7.23c-.15-.58-.74-3.47,1.52-4.49s7.3-1.15,9.08.5a4,4,0,0,1,1.09,2.75,2.47,2.47,0,0,1-.6,1.83c-.33.51.15,4.1.81,7.13a.5.5,0,0,1-.27.56A.54.54,0,0,1,53.27,97Zm-6.14-4.27h.36a8.48,8.48,0,0,1,4.95,2.2c-.49-2.56-.9-5.67-.2-6.38a1.52,1.52,0,0,0,.31-1.1,3,3,0,0,0-.77-2c-1.32-1.22-6-1.23-8-.32-1.68.76-.95,3.38-.94,3.4a.61.61,0,0,1,0,.19l-.61,6A7.58,7.58,0,0,1,47.13,92.72Z"></path><path class="cls-8" d="M40.64,44.6a5.74,5.74,0,0,1-2.11-.41c-5-2-3.51-8.57-3.49-8.64l0-.1L46.25,11.13a.57.57,0,0,1,1,0L58.42,35.45l0,.1c0,.07,1.46,6.67-3.49,8.64C53,45,50,45,46.74,41,44.49,43.77,42.38,44.6,40.64,44.6ZM36,35.82c-.12.6-1.1,5.85,2.9,7.44,1.68.67,4.31.66,7.3-3.17l0,0a.46.46,0,0,1,.13-.21.5.5,0,0,1,.38-.14c.24,0,.34.14.54.39,3,3.83,5.62,3.84,7.3,3.17,4-1.59,3-6.84,2.9-7.44L46.74,12.45Z"></path><path class="cls-8" d="M41.76,96.52h0c-.67,0-16.36-1.08-21.17-5.41a.52.52,0,0,1-.14-.54l2.37-6.78a.51.51,0,0,1,.26-.28.46.46,0,0,1,.38,0c.13,0,12.81,4.51,19.55,4.58a.46.46,0,0,1,.38.18.51.51,0,0,1,.11.4L42.25,96.1A.5.5,0,0,1,41.76,96.52ZM21.48,90.58c4.39,3.54,17.28,4.71,19.86,4.91l1-6.44c-6.3-.26-16.48-3.65-18.82-4.46Z"></path><path class="cls-8" d="M52.87,97a.5.5,0,0,1-.5-.42l-1.21-7.45a.46.46,0,0,1,.11-.4.49.49,0,0,1,.37-.18C58.39,88.48,71.07,84,71.19,84a.58.58,0,0,1,.39,0,.48.48,0,0,1,.25.29L74.21,91a.52.52,0,0,1-.14.54C69.25,95.91,53.56,97,52.9,97Zm-.63-7.46,1,6.43c2.58-.2,15.47-1.37,19.86-4.91l-2.1-6C68.71,85.88,58.54,89.27,52.24,89.53Z"></path><path class="cls-8" d="M48.94,53.16H45.48a.43.43,0,0,1-.19,0,1.73,1.73,0,0,1-1-1.16,1.7,1.7,0,0,1,.65-1.52.51.51,0,0,1,.34-.14l3.69,0a.45.45,0,0,1,.31.1A1.89,1.89,0,0,1,50,51.75a1.64,1.64,0,0,1-.74,1.31A.45.45,0,0,1,48.94,53.16Zm-3.34-1h3.15a.6.6,0,0,0,.23-.41.79.79,0,0,0-.24-.48l-3.28,0c-.17.19-.25.35-.23.47S45.46,52.08,45.6,52.16Z"></path><path class="cls-8" d="M49,77.45H45.55a.65.65,0,0,1-.19,0,1.78,1.78,0,0,1-1-1.17A1.66,1.66,0,0,1,45,74.72a.51.51,0,0,1,.34-.13l3.69,0a.55.55,0,0,1,.31.11A1.89,1.89,0,0,1,50.05,76a1.64,1.64,0,0,1-.74,1.3A.46.46,0,0,1,49,77.45Zm-3.34-1h3.15a.6.6,0,0,0,.23-.41.82.82,0,0,0-.24-.49l-3.28,0a.67.67,0,0,0-.23.48C45.33,76.22,45.54,76.37,45.67,76.45Z"></path><path class="cls-8" d="M48.94,49.3H45.48a.43.43,0,0,1-.19,0,1.76,1.76,0,0,1-1-1.17,1.69,1.69,0,0,1,.65-1.51.51.51,0,0,1,.34-.14l3.69,0a.46.46,0,0,1,.31.1A1.92,1.92,0,0,1,50,47.89a1.64,1.64,0,0,1-.74,1.31A.47.47,0,0,1,48.94,49.3Zm-3.34-1h3.15a.6.6,0,0,0,.23-.41.79.79,0,0,0-.24-.48l-3.28,0a.64.64,0,0,0-.23.47C45.26,48.07,45.46,48.22,45.6,48.3Z"></path><path class="cls-8" d="M47.1,46.37a10.94,10.94,0,0,1-1.49-.12.49.49,0,0,1-.34-.22c-.16-.24-.93-1.49-.21-2.22a18.88,18.88,0,0,1,1.76-1.38.51.51,0,0,1,.53,0l1.7,1a.52.52,0,0,1,.18.18,2,2,0,0,1,0,2.18A2.62,2.62,0,0,1,47.1,46.37ZM46,45.29a4,4,0,0,0,2.41-.17,1,1,0,0,0,0-1l-1.29-.72a12.61,12.61,0,0,0-1.37,1.09C45.71,44.6,45.81,45,46,45.29Z"></path><path class="cls-8" d="M48.13,42.14a.5.5,0,0,1-.35-.14l-1-.93-.77.77a.5.5,0,0,1-.85-.38l1.16-22.3a.51.51,0,0,1,.5-.48h0a.5.5,0,0,1,.5.47l1.27,22.46a.47.47,0,0,1-.29.48A.46.46,0,0,1,48.13,42.14Zm-1.32-2.27a.49.49,0,0,1,.34.14l.4.39-.68-12-.62,11.83.2-.19A.51.51,0,0,1,46.81,39.87Z"></path><path class="cls-9" d="M48.7,78.13H45.79a.48.48,0,0,1-.36-.16.47.47,0,0,1-.14-.37l0-.71a.54.54,0,0,1,.51-.48l2.81.07a.51.51,0,0,1,.49.45l.07.64a.5.5,0,0,1-.13.39A.48.48,0,0,1,48.7,78.13Z"></path><path class="cls-8" d="M47.22,79.89h-.1A2.12,2.12,0,0,1,45.64,79a.58.58,0,0,1-.08-.22l-.1-.91a.5.5,0,0,1,.13-.39.48.48,0,0,1,.37-.17h2.37a.5.5,0,0,1,.5.5v1a.49.49,0,0,1-.12.32A2,2,0,0,1,47.22,79.89Zm-.68-1.4a1.09,1.09,0,0,0,.65.4.91.91,0,0,0,.64-.34v-.29H46.52Z"></path><path class="cls-8" d="M21.17,90.56h-.11a.49.49,0,0,1-.35-.29s-1.38-3-3.43-3.27c-1.07-.14-2.18.47-3.32,1.83a.49.49,0,0,1-.37.18.56.56,0,0,1-.39-.17,8.09,8.09,0,0,1-1.81-4.44.48.48,0,0,1,.06-.28l3.52-6a4.21,4.21,0,0,1,2.62-1.76,6,6,0,0,1,4.68,1.41c3.53,2.57,3.27,4.74,3.1,6.19a2.49,2.49,0,0,0,0,1c.53,1.45-2.53,4.33-3.87,5.5A.47.47,0,0,1,21.17,90.56ZM17,86a3.4,3.4,0,0,1,.45,0c2,.27,3.32,2.24,3.9,3.26,1.84-1.69,3.28-3.51,3.11-4a3.06,3.06,0,0,1,0-1.48c.16-1.36.36-3-2.7-5.26A5,5,0,0,0,17.8,77.3a3.23,3.23,0,0,0-2,1.3l-3.44,5.89a6.89,6.89,0,0,0,1.22,3.22A4.71,4.71,0,0,1,17,86Z"></path><path class="cls-9" d="M13.58,89a.46.46,0,0,1-.23-.06.5.5,0,0,1-.22-.67l3.53-6.78A4.68,4.68,0,0,1,15.31,78a.52.52,0,0,1,.48-.52.5.5,0,0,1,.52.48c.12,2.43,1.18,2.94,1.19,3a.48.48,0,0,1,.27.29.51.51,0,0,1,0,.4L14,88.73A.5.5,0,0,1,13.58,89Z"></path><path class="cls-9" d="M66.82,33.76a.51.51,0,0,1-.5-.5V28.48a.5.5,0,0,1,.5-.5.5.5,0,0,1,.5.5v4.78A.5.5,0,0,1,66.82,33.76Z"></path><path class="cls-9" d="M62.14,34.72a2.18,2.18,0,0,1-1.55-.59,2.08,2.08,0,0,1-.87-1.68,1.18,1.18,0,0,1,.56-.85.5.5,0,0,1,.49.87h0a.15.15,0,0,0-.05.11c0,.14.12.43.55.82.8.74,2.2,0,2.72-.32l.1-3.9a.49.49,0,0,1,.51-.49.52.52,0,0,1,.49.51L65,33.37a.5.5,0,0,1-.21.39A5.12,5.12,0,0,1,62.14,34.72Z"></path><path class="cls-9" d="M31.87,33.79h0a.5.5,0,0,1-.49-.51l.1-4.4a.49.49,0,0,1,.5-.49h0a.5.5,0,0,1,.49.51l-.1,4.4A.51.51,0,0,1,31.87,33.79Z"></path><path class="cls-8" d="M32.69,34.69a6.48,6.48,0,0,1-1.53-.21.5.5,0,0,1-.34-.31.53.53,0,0,1,.06-.46c.44-.61,1.54-2.06,2.39-2.17a.82.82,0,0,1,.65.18,1.58,1.58,0,0,0,.32.21c.67.36.59.81.38,1.65a1.31,1.31,0,0,1-.62.82A2.6,2.6,0,0,1,32.69,34.69Zm-.51-1a2.44,2.44,0,0,0,1.31-.12.29.29,0,0,0,.16-.2,4.49,4.49,0,0,0,.11-.53h0a2.55,2.55,0,0,1-.41-.26A4.51,4.51,0,0,0,32.18,33.66Z"></path><path class="cls-8" d="M22.84,34.18a3.54,3.54,0,0,1-2.78-1.67.51.51,0,0,1,.16-.69.5.5,0,0,1,.69.15c0,.06.93,1.41,2.21,1.18a1.08,1.08,0,0,1-.56-.63A1.1,1.1,0,0,1,23,31.15c.26-.16.95-.42,1.29-.08a2.3,2.3,0,0,1,.7,1.65c0,.42-.32,1-1.3,1.32A2.61,2.61,0,0,1,22.84,34.18Zm.87-2.26a.56.56,0,0,0-.23.13.19.19,0,0,0,0,.12.4.4,0,0,0,.37,0C23.82,32.09,23.77,32,23.71,31.92Z"></path><path class="cls-9" d="M23.87,31.11a.5.5,0,0,1-.44-.26l-.27-.51a.5.5,0,0,1,.21-.67.51.51,0,0,1,.68.2l.27.51a.51.51,0,0,1-.21.68A.52.52,0,0,1,23.87,31.11Z"></path><path class="cls-9" d="M70.49,34.62a2.56,2.56,0,0,1-.91-.15,1.6,1.6,0,0,1-1-1.07.5.5,0,0,1,.33-.62.51.51,0,0,1,.63.33.6.6,0,0,0,.4.42,2.69,2.69,0,0,0,1.8-.19.2.2,0,0,0,.11-.15c-.56-.27-1.6-.9-1.34-1.8s1.8-1.42,2.27-1.56a.5.5,0,1,1,.28,1c-.75.22-1.53.65-1.59.88a2.19,2.19,0,0,0,1,.72.51.51,0,0,1,.29.3,1.28,1.28,0,0,1-.53,1.5A3.87,3.87,0,0,1,70.49,34.62Z"></path><path class="cls-9" d="M71.8,36a.52.52,0,0,1-.38-.17L71,35.31a.49.49,0,0,1,0-.7.51.51,0,0,1,.71,0l.44.5a.51.51,0,0,1-.05.71A.52.52,0,0,1,71.8,36Z"></path><path class="cls-9" d="M70.89,36a.52.52,0,0,1-.38-.17l-.44-.51a.49.49,0,0,1,.05-.7.51.51,0,0,1,.71,0l.43.5a.5.5,0,0,1-.05.71A.49.49,0,0,1,70.89,36Z"></path><path class="cls-9" d="M27.37,34.14a2.47,2.47,0,0,1-.9-.15,1.62,1.62,0,0,1-1-1.06.5.5,0,1,1,1-.3.6.6,0,0,0,.4.43,2.71,2.71,0,0,0,1.81-.2.22.22,0,0,0,.1-.14c-.56-.27-1.59-.91-1.34-1.8s1.8-1.43,2.27-1.56a.49.49,0,0,1,.62.34.5.5,0,0,1-.34.62,3.14,3.14,0,0,0-1.59.87c0,.16.55.53,1,.72a.55.55,0,0,1,.29.31,1.28,1.28,0,0,1-.53,1.5A3.85,3.85,0,0,1,27.37,34.14Z"></path><path class="cls-9" d="M28.68,35.52a.5.5,0,0,1-.37-.17l-.45-.51a.5.5,0,0,1,.76-.66l.44.51a.49.49,0,0,1,0,.7A.46.46,0,0,1,28.68,35.52Z"></path><path class="cls-9" d="M27.77,35.52a.49.49,0,0,1-.38-.18l-.44-.5a.5.5,0,0,1,.76-.66l.44.51a.49.49,0,0,1,0,.7A.48.48,0,0,1,27.77,35.52Z"></path><path class="cls-9" d="M20,78.06a.51.51,0,0,1-.5-.43.51.51,0,0,1,.43-.57c37.45-5.22,51.15-31.34,55.5-43.3C59.76,62.49,26,71.25,20.64,69.74c-1,.11-1.3.38-1.3.39a.49.49,0,0,1-.69.09.52.52,0,0,1-.09-.72c.1-.14.57-.62,2.08-.77a.5.5,0,0,1,.21,0C26,70.5,63.36,60.64,77.23,27.68a.51.51,0,0,1,.61-.29.52.52,0,0,1,.35.57c-.09.44-8.77,43.22-58.14,50.09Z"></path><path class="cls-8" d="M19.25,78.12a1.43,1.43,0,0,1-1.05-.35c-.49-.45-.43-1.17-.36-1.93l0-.25a14,14,0,0,1,.27-2c-.21-.62-.85-2.82.58-4.25A1.47,1.47,0,0,1,20.44,69c1.15.55,1.71,2.64,1.56,4.27,0,.46-.05.89-.07,1.3-.06,1.66-.12,3.22-2,3.52A5,5,0,0,1,19.25,78.12Zm.62-8.29a.66.66,0,0,0-.45.26c-1.18,1.17-.31,3.29-.3,3.31a.53.53,0,0,1,0,.33,11.77,11.77,0,0,0-.29,1.93l0,.27c0,.44-.08,1,.05,1.11s.2.14.91,0c1-.15,1.08-.79,1.14-2.56,0-.43,0-.88.08-1.36.13-1.49-.44-3-1-3.27A.34.34,0,0,0,19.87,69.83Z"></path><path class="cls-8" d="M40.55,64.66a.57.57,0,0,1-.31-.1A66.46,66.46,0,0,1,16.58,28.27a.5.5,0,0,1,1-.29c7,16.67,20,26.83,29.6,32.42a.5.5,0,0,1,.25.44.53.53,0,0,1-.27.44L40.78,64.6A.46.46,0,0,1,40.55,64.66ZM19.3,34a66.07,66.07,0,0,0,21.3,29.6l5.25-2.76C37.32,55.73,26.5,47.2,19.3,34Z"></path><path class="cls-9" d="M74.79,78.36h-.07a75.07,75.07,0,0,1-28-9.42.5.5,0,0,1,0-.85L53.46,64a.49.49,0,0,1,.47,0c10.11,4.67,17.91,5.82,20,5.12a.51.51,0,0,1,.21,0c1.51.16,2,.64,2.08.78a.51.51,0,0,1-.11.7.5.5,0,0,1-.68-.08A2.44,2.44,0,0,0,74.13,70C71.32,70.87,63,69.21,53.75,65L48,68.5a74.38,74.38,0,0,0,26.88,8.87.5.5,0,0,1-.06,1Z"></path><path class="cls-8" d="M75.51,78.42a4.62,4.62,0,0,1-.7-.06c-1.86-.31-1.92-1.88-2-3.54,0-.4,0-.83-.07-1.28-.15-1.63.41-3.73,1.56-4.27a1.43,1.43,0,0,1,1.72.42c1.44,1.42.8,3.62.58,4.24a13.43,13.43,0,0,1,.28,2l0,.24c.07.77.13,1.5-.36,2A1.49,1.49,0,0,1,75.51,78.42Zm-.62-8.28a.31.31,0,0,0-.13,0c-.56.26-1.13,1.78-1,3.28,0,.47.06.92.07,1.34.07,1.78.18,2.42,1.14,2.58.72.12.89,0,.92,0s.08-.67,0-1.12l0-.25A11,11,0,0,0,75.63,74a.53.53,0,0,1,0-.33s.87-2.15-.29-3.32A.71.71,0,0,0,74.89,70.14Z"></path><path class="cls-9" d="M48.4,75.92h0l-2.51-.13a.51.51,0,0,1-.47-.5V68.83a.5.5,0,0,1,1,0v6l1.51.08,0-5.86a.5.5,0,0,1,.5-.5h0a.49.49,0,0,1,.5.49l0,6.39a.52.52,0,0,1-.16.37A.47.47,0,0,1,48.4,75.92Z"></path><path class="cls-9" d="M45.89,61.54a.5.5,0,0,1-.5-.5V45.68a.49.49,0,0,1,.47-.49l2.44-.14a.47.47,0,0,1,.37.14.48.48,0,0,1,.16.36l0,14.87a.5.5,0,0,1-1,0l0-14.34-1.44.08V61A.5.5,0,0,1,45.89,61.54Z"></path></svg> 