<svg xmlns="http://www.w3.org/2000/svg" xmlns:xlink="http://www.w3.org/1999/xlink" width="272" height="39.15" viewBox="0 0 272 39.15">
  <defs>
    <clipPath id="clip-path">
      <rect id="Rectangle_41370" data-name="Rectangle 41370" width="272" height="39.15" transform="translate(-11651 10736)" fill="none" stroke="#707070" stroke-width="1"/>
    </clipPath>
    <clipPath id="clip-path-2">
      <rect id="Rectangle_29051" data-name="Rectangle 29051" width="58.781" height="28.911" fill="none"/>
    </clipPath>
  </defs>
  <g id="Mask_Group_79783" data-name="Mask Group 79783" transform="translate(11651 -10736)" clip-path="url(#clip-path)">
    <path id="Path_75767" data-name="Path 75767" d="M11.319,21c3.087,0,5.124-1.806,5.124-4.536a3.668,3.668,0,0,0-1.995-3.507A3.779,3.779,0,0,0,15.6,10.1c0-2.289-2.058-3.738-5.334-3.738H.84V21ZM6.09,9.933H9.3a.881.881,0,0,1,1.008.9A.964.964,0,0,1,9.24,11.907H6.09Zm0,5.25H9.933c.84,0,1.26.315,1.26.966a1.06,1.06,0,0,1-1.176,1.2H6.09Zm24.024.567c1.575-.693,2.625-2.016,2.625-4.452,0-4.263-3.318-4.935-6.846-4.935H17.577V21h5.166V16.422h2.31L27.594,21h5.8Zm-4.452-5.607c.609,0,1.848-.063,1.848,1.2,0,1.344-1.26,1.281-1.848,1.281H22.743V10.143ZM51.492,21,45.129,6.363h-5.46L33.285,21h5.649l.693-1.932h5.5L45.8,21ZM42.4,11.34l1.386,3.927H40.992Zm20.433,2.016L56.868,6.363H52.143V21H57.33V13.9L63.336,21h4.746V6.363h-5.25ZM77.826,21c5.334,0,8.274-2.541,8.274-7.2,0-4.746-3.066-7.434-8.211-7.434H69.7V21ZM74.949,10.6h2.268c1.008,0,3.612-.063,3.612,3.045,0,3.507-3.213,3.108-4.011,3.108H74.949ZM102.9,21.462c4.452,0,7.434-1.743,8.631-4.767l-4.914-1.449c-.609,1.533-1.638,2.289-3.717,2.289-2.772,0-4.263-1.554-4.263-3.885s1.449-3.822,4.158-3.822a3.746,3.746,0,0,1,3.822,2.163l4.893-1.512c-1.386-2.835-4.3-4.578-8.715-4.578-5.817,0-9.366,3.171-9.366,7.791C93.429,18.333,97.062,21.462,102.9,21.462ZM124.908,21V17.22h-7.2V15.54h6.972V11.718h-6.972V10.143h7.2V6.363h-12.39V21Zm12.327-7.644-5.964-6.993h-4.725V21h5.187V13.9l6.006,7.1h4.746V6.363h-5.25ZM153.573,21V10.647h4.83V6.363H143.388v4.284h4.893V21Zm18.291-5.25c1.575-.693,2.625-2.016,2.625-4.452,0-4.263-3.318-4.935-6.846-4.935h-8.316V21h5.166V16.422h2.31L169.344,21h5.8Zm-4.452-5.607c.609,0,1.848-.063,1.848,1.2,0,1.344-1.26,1.281-1.848,1.281h-2.919V10.143ZM188.433,21V17.22h-7.2V15.54H188.2V11.718H181.23V10.143h7.2V6.363h-12.39V21Z" transform="translate(-11567.792 10742)" fill="#1800e1"/>
    <path id="Line_702" data-name="Line 702" d="M-.011,39.128H-.5V0h.489Z" transform="translate(-11579.75 10736)" fill="#707070"/>
    <g id="Group_101724" data-name="Group 101724" transform="translate(-11651 10736.001)">
      <g id="Group_82979" data-name="Group 82979" transform="translate(0 0)" clip-path="url(#clip-path-2)">
        <path id="Path_58700" data-name="Path 58700" d="M0,34.292H6.757a.391.391,0,0,1,.39.39v10.55h7.524V34.682a.389.389,0,0,1,.39-.39h6.754V28.668H0Z" transform="translate(0 -16.322)" fill="#1800e2"/>
        <path id="Path_58701" data-name="Path 58701" d="M75.692,28.67H73.586v0a.776.776,0,0,0-.692.4l-3.971,7.161h0a.388.388,0,0,1-.657.036.336.336,0,0,1-.022-.036.362.362,0,0,1-.022-.043l-3.947-7.119a.778.778,0,0,0-.694-.4v-.005h-9.3V45.234h7.191V37.093h0a.393.393,0,0,1,.047-.16.389.389,0,0,1,.659-.039h0l4.623,8.34h3.555l4.625-8.344,0,0h0a.389.389,0,0,1,.705.2h0v8.141h7.191V28.67Z" transform="translate(-30.904 -16.322)" fill="#1800e2"/>
        <path id="Path_58702" data-name="Path 58702" d="M107.209,6.433a15.434,15.434,0,0,0-4.461,5.073A21.944,21.944,0,0,1,117.28,7.873c-.893-1.927-5.268-4.686-10.071-1.441" transform="translate(-58.499 -2.81)" fill="#eb3c00"/>
        <path id="Path_58703" data-name="Path 58703" d="M64.958,6.436c1.133,1.863-1.978,4.736-1.978,4.736,5.212-.612,8.008-3.905,7.521-6.653C70.038,1.908,66.965,0,61.368,0A26.463,26.463,0,0,0,46.05,4.7c9.841-1.615,17.29-.928,18.908,1.737" transform="translate(-26.218 0)" fill="#ff7a00"/>
      </g>
    </g>
  </g>
</svg>
